<svg width="52" height="49" viewBox="0 0 52 49" fill="none" xmlns="http://www.w3.org/2000/svg">
<path d="M40.2857 17.0633C40.2857 -4.35443 11.7143 -4.35443 11.7143 17.0633V20.6329H7.8381C6.45 20.6329 5.87857 22.4153 7.00952 23.2221L11.7143 26.5823C10.9214 29.3594 7.66667 35.3873 1 37.2911C1.79286 38.481 4.09524 40.8608 6.95238 40.8608L9.33333 44.4304L15.2857 43.2405C17.269 44.8278 22.1905 48 26 48C29.8095 48 34.731 44.8278 36.7143 43.2405L42.6667 44.4304L45.0476 40.8608C47.9048 40.8608 50.2071 38.481 51 37.2911C44.3333 35.3873 41.0786 29.3594 40.2857 26.5823L44.9905 23.2221C46.1214 22.4153 45.55 20.6329 44.1619 20.6329H40.2857V17.0633Z" fill="#FBF304" stroke="#101010" stroke-width="2" stroke-linecap="round" stroke-linejoin="round"/>
</svg>
