<svg width="27" height="27" viewBox="0 0 27 27" fill="none" xmlns="http://www.w3.org/2000/svg">
<path d="M12.1438 0.820958C12.4059 -0.273408 13.9628 -0.273406 14.225 0.82096L15.6256 6.66752C15.7843 7.32998 16.5134 7.67748 17.1279 7.38357L22.3758 4.87368C23.3755 4.39556 24.3535 5.56579 23.7055 6.46474L20.0759 11.5C19.698 12.0243 19.8676 12.7615 20.4368 13.0679L25.8045 15.9576C26.7712 16.478 26.4209 17.9428 25.3234 17.9696L19.4037 18.1139C18.742 18.13 18.2535 18.737 18.3792 19.3869L19.5507 25.4425C19.7634 26.5423 18.3573 27.1883 17.6615 26.3104L14.023 21.7196C13.5946 21.179 12.7742 21.179 12.3458 21.7196L8.70732 26.3104C8.01151 27.1883 6.60535 26.5423 6.81811 25.4425L7.98958 19.3869C8.1153 18.737 7.62679 18.13 6.96507 18.1139L1.04541 17.9696C-0.0520999 17.9428 -0.402397 16.478 0.564263 15.9576L5.93202 13.0679C6.50117 12.7615 6.67081 12.0243 6.29284 11.5L2.66325 6.46474C2.01526 5.56579 2.99329 4.39556 3.99299 4.87368L9.24086 7.38357C9.8554 7.67748 10.5845 7.32998 10.7432 6.66752L12.1438 0.820958Z" fill="#94C7FF"/>
</svg>
