<svg width="20" height="19" viewBox="0 0 20 19" fill="none" xmlns="http://www.w3.org/2000/svg">
<path d="M8.49914 0.806484C8.77238 -0.268926 10.3001 -0.268926 10.5734 0.806484L11.3884 4.01445C11.5523 4.65939 12.2588 4.99996 12.8654 4.72642L15.8908 3.36217C16.9039 2.9053 17.8558 4.10462 17.1807 4.98755L15.1852 7.59778C14.7788 8.12925 14.9544 8.89908 15.5509 9.20187L18.4851 10.6912C19.4771 11.1947 19.1375 12.6896 18.0254 12.7152L14.721 12.7911C14.0538 12.8065 13.5632 13.4222 13.6974 14.076L14.3595 17.303C14.5826 18.3905 13.2065 19.0564 12.4922 18.2066L10.3554 15.6646C9.92776 15.1559 9.14474 15.1559 8.71714 15.6646L6.58036 18.2066C5.86603 19.0564 4.48989 18.3905 4.71301 17.303L5.37512 14.076C5.50926 13.4222 5.01872 12.8065 4.35148 12.7911L1.04711 12.7152C-0.0650084 12.6896 -0.404567 11.1947 0.587381 10.6912L3.52158 9.20187C4.11813 8.89908 4.29367 8.12925 3.88734 7.59778L1.89177 4.98756C1.21674 4.10462 2.16857 2.9053 3.18173 3.36217L6.20708 4.72642C6.81369 4.99996 7.52021 4.65939 7.68407 4.01445L8.49914 0.806484Z" fill="#AF96FB"/>
</svg>
