<svg width="143" height="143" viewBox="0 0 143 143" fill="none" xmlns="http://www.w3.org/2000/svg">
<circle cx="71.5" cy="71.5" r="71.5" fill="#3D27FF"/>
<path d="M74.4453 107.567V37.0902C74.4453 35.889 73.4748 34.9185 72.2735 34.9185C71.0722 34.9185 70.1017 35.889 70.1017 37.0902V102.321L56.9216 89.1407C56.0733 88.2923 54.6956 88.2923 53.8472 89.1407C52.9988 89.989 52.9988 91.3668 53.8472 92.2151L70.7397 109.108C71.3641 109.732 72.2939 109.915 73.1083 109.576C73.9159 109.237 74.4453 108.442 74.4453 107.567Z" fill="white"/>
<path d="M91.3475 90.6535C91.3475 90.097 91.1371 89.5405 90.7095 89.1197C89.8611 88.2713 88.4834 88.2713 87.635 89.1197L70.7222 106.033C69.8738 106.881 69.8738 108.259 70.7222 109.107C71.5706 109.955 72.9483 109.955 73.7967 109.107L90.7095 92.1941C91.1371 91.7665 91.3475 91.21 91.3475 90.6535Z" fill="white"/>
</svg>
