<svg width="17" height="12" viewBox="0 0 17 12" fill="none" xmlns="http://www.w3.org/2000/svg">
<path d="M16.3007 5.1883H0.666668C0.297917 5.1883 0 5.48621 0 5.85496C0 6.22372 0.297917 6.52163 0.666668 6.52163H14.6903L10.6444 10.5675C10.384 10.8279 10.384 11.2508 10.6444 11.5112C10.9048 11.7716 11.3278 11.7716 11.5882 11.5112L16.7736 6.3258C16.9653 6.13413 17.0215 5.84871 16.9174 5.59871C16.8132 5.3508 16.5694 5.1883 16.3007 5.1883Z" fill="black"/>
<path d="M11.1076 3.05176e-05C10.9367 3.05176e-05 10.7659 0.0646148 10.6367 0.195865C10.3763 0.456282 10.3763 0.8792 10.6367 1.13962L15.8284 6.3313C16.0888 6.59172 16.5117 6.59172 16.7722 6.3313C17.0326 6.07088 17.0326 5.64796 16.7722 5.38754L11.5805 0.195865C11.4492 0.0646148 11.2784 3.05176e-05 11.1076 3.05176e-05Z" fill="black"/>
</svg>
