<svg width="65" height="65" viewBox="0 0 65 65" fill="none" xmlns="http://www.w3.org/2000/svg">
<rect x="0.5" y="0.5" width="64" height="64" rx="32" stroke="black" stroke-opacity="0.08"/>
<path d="M22.125 33.0415H27.8333C27.9306 34.7221 28.2431 36.354 28.7708 37.9373C29.2847 39.479 29.9931 40.9304 30.8958 42.2915C29.3542 42.0554 27.9479 41.5033 26.6771 40.6353C25.4062 39.7672 24.375 38.6804 23.5833 37.3748C22.7778 36.0415 22.2917 34.5971 22.125 33.0415ZM22.125 30.9582C22.2917 29.4026 22.7778 27.9582 23.5833 26.6248C24.375 25.3193 25.4062 24.2325 26.6771 23.3644C27.9479 22.4964 29.3542 21.9443 30.8958 21.7082C29.9931 23.0693 29.2847 24.5207 28.7708 26.0623C28.2431 27.6457 27.9306 29.2776 27.8333 30.9582H22.125ZM42.875 30.9582H37.1667C37.0694 29.2776 36.7569 27.6457 36.2292 26.0623C35.7153 24.5207 35.0069 23.0693 34.1042 21.7082C35.6458 21.9443 37.0521 22.4964 38.3229 23.3644C39.5938 24.2325 40.625 25.3193 41.4167 26.6248C42.2222 27.9582 42.7083 29.4026 42.875 30.9582ZM42.875 33.0415C42.7083 34.5971 42.2222 36.0415 41.4167 37.3748C40.625 38.6804 39.5938 39.7672 38.3229 40.6353C37.0521 41.5033 35.6458 42.0554 34.1042 42.2915C35.0069 40.9304 35.7153 39.479 36.2292 37.9373C36.7569 36.354 37.0694 34.7221 37.1667 33.0415H42.875ZM29.9375 33.0415H35.0625C34.9792 34.4721 34.7153 35.8609 34.2708 37.2082C33.8403 38.5276 33.25 39.7776 32.5 40.9582C31.75 39.7776 31.1597 38.5276 30.7292 37.2082C30.2847 35.8609 30.0208 34.4721 29.9375 33.0415ZM29.9375 30.9582C30.0208 29.5276 30.2847 28.1387 30.7292 26.7915C31.1597 25.4721 31.75 24.2221 32.5 23.0415C33.25 24.2221 33.8403 25.4721 34.2708 26.7915C34.7153 28.1387 34.9792 29.5276 35.0625 30.9582H29.9375Z" fill="#101010"/>
</svg>
