<svg width="65" height="65" viewBox="0 0 65 65" fill="none" xmlns="http://www.w3.org/2000/svg">
<rect x="0.5" y="0.5" width="64" height="64" rx="32" stroke="black" stroke-opacity="0.08"/>
<path d="M32.3529 22.0417C32.8668 21.7084 33.4327 21.5382 34.0508 21.5313C34.6688 21.5243 35.2418 21.6875 35.7695 22.0209L40.1029 24.7709H41.8737C42.1654 24.7709 42.4119 24.8716 42.6133 25.073C42.8147 25.2743 42.9154 25.5209 42.9154 25.8125V35.1875C42.9154 35.4792 42.8147 35.7257 42.6133 35.9271C42.4119 36.1285 42.1654 36.2292 41.8737 36.2292H40.2904C40.3181 36.7292 40.2174 37.2118 39.9883 37.6771C39.7591 38.1424 39.4154 38.507 38.957 38.7709L33.6445 41.9584C33.3112 42.1667 32.9501 42.2674 32.5612 42.2605C32.1723 42.2535 31.8181 42.1528 31.4987 41.9584C31.1237 42.2778 30.6827 42.448 30.1758 42.4688C29.6688 42.4896 29.2209 42.3403 28.832 42.0209L23.4779 37.8125C23.0751 37.507 22.8216 37.1146 22.7174 36.6355C22.6133 36.1563 22.6654 35.7014 22.8737 35.2709C22.6237 35.0764 22.4293 34.8334 22.2904 34.5417C22.1515 34.25 22.082 33.9445 22.082 33.625V25.8125C22.082 25.5209 22.1827 25.2743 22.3841 25.073C22.5855 24.8716 22.832 24.7709 23.1237 24.7709H28.2695L32.3529 22.0417ZM24.3529 33.7709L25.0612 33.1459C25.4918 32.7709 25.9744 32.5313 26.5091 32.4271C27.0438 32.323 27.5716 32.3542 28.0924 32.5209C28.6133 32.6875 29.0612 32.9792 29.4362 33.3959L32.2487 36.4792C32.707 36.9792 32.9744 37.566 33.0508 38.2396C33.1272 38.9132 32.9987 39.5417 32.6654 40.125L37.8737 37C38.0265 36.9028 38.1272 36.7778 38.1758 36.625C38.2244 36.4723 38.2209 36.3195 38.1654 36.1667L33.5612 29.7084C33.4362 29.5278 33.2661 29.4028 33.0508 29.3334C32.8355 29.2639 32.6237 29.257 32.4154 29.3125L29.832 30.1042C29.2765 30.257 28.7209 30.2639 28.1654 30.125C27.6098 29.9861 27.1237 29.7153 26.707 29.3125L26.4154 29C26.1237 28.7223 25.9362 28.3855 25.8529 27.9896C25.7695 27.5938 25.7904 27.2153 25.9154 26.8542H24.1654V33.625L24.3529 33.7709ZM34.6445 23.7709C34.4779 23.6598 34.2904 23.6042 34.082 23.6042C33.8737 23.6042 33.6862 23.6667 33.5195 23.7917L27.8737 27.5417L28.1862 27.8334C28.3251 27.9723 28.4883 28.066 28.6758 28.1146C28.8633 28.1632 29.0473 28.1598 29.2279 28.1042L31.8112 27.3334C32.4501 27.1389 33.0855 27.1493 33.7174 27.3646C34.3494 27.5799 34.8598 27.9584 35.2487 28.5L39.2904 34.1459H40.832V26.8542H40.1029C39.6862 26.8542 39.3112 26.7431 38.9779 26.5209L34.6445 23.7709ZM26.4362 34.7084L24.7487 36.1875L30.1029 40.3959L30.8529 39.1042C30.964 38.9098 31.0056 38.7014 30.9779 38.4792C30.9501 38.257 30.8598 38.0625 30.707 37.8959L27.8945 34.7917C27.7001 34.5834 27.4605 34.4723 27.1758 34.4584C26.8911 34.4445 26.6445 34.5278 26.4362 34.7084Z" fill="#101010"/>
</svg>
