<svg width="24" height="16" viewBox="0 0 24 16" fill="none" xmlns="http://www.w3.org/2000/svg">
<path d="M20.8177 16H2.27339C1.67063 15.9993 1.09275 15.7595 0.666547 15.3333C0.240346 14.9071 0.000632462 14.3292 0 13.7264V2.27361C0.000632462 1.67084 0.240346 1.09294 0.666547 0.666701C1.09275 0.240459 1.67063 0.000690058 2.27339 0H20.8177C21.4205 0.000690058 21.9983 0.240459 22.4245 0.666701C22.8507 1.09294 23.0904 1.67084 23.0911 2.27361V13.7264C23.0904 14.3292 22.8507 14.9071 22.4245 15.3333C21.9983 15.7595 21.4205 15.9993 20.8177 16ZM2.27339 0.868951C1.901 0.869354 1.54397 1.01748 1.28067 1.28082C1.01737 1.54417 0.869296 1.90122 0.868951 2.27361V13.7264C0.869296 14.0988 1.01737 14.4558 1.28067 14.7192C1.54397 14.9825 1.901 15.1306 2.27339 15.131H20.8177C21.1901 15.1306 21.5471 14.9825 21.8104 14.7192C22.0737 14.4558 22.2218 14.0988 22.2221 13.7264V2.27361C22.2218 1.90122 22.0737 1.54417 21.8104 1.28082C21.5471 1.01748 21.1901 0.869354 20.8177 0.868951H2.27339Z" fill="white"/>
<path d="M11.5475 10.5571C11.4416 10.5571 11.3394 10.5185 11.2599 10.4485L0.789062 1.20542L1.36409 0.553711L11.5475 9.54388L21.7314 0.554797L22.3065 1.20651L11.8356 10.4495C11.756 10.5194 11.6535 10.5577 11.5475 10.5571Z" fill="white"/>
<path d="M0.550781 14.6357L7.585 6.621L8.23845 7.19451L1.20423 15.2092L0.550781 14.6357Z" fill="white"/>
<path d="M14.875 7.18604L15.5285 6.61253L22.5628 14.6274L21.9094 15.2009L14.875 7.18604Z" fill="white"/>
</svg>
