<svg width="65" height="65" viewBox="0 0 65 65" fill="none" xmlns="http://www.w3.org/2000/svg">
<rect x="0.5" y="0.5" width="64" height="64" rx="32" stroke="black" stroke-opacity="0.08"/>
<path d="M40.9184 35.6667L42.1684 36.4167C42.2934 36.5 42.3733 36.6111 42.408 36.75C42.4427 36.8889 42.4253 37.0208 42.3559 37.1458C42.3142 37.2153 42.2517 37.2708 42.1684 37.3125L33.0434 42.7917C32.8767 42.8889 32.6962 42.9375 32.5017 42.9375C32.3073 42.9375 32.1267 42.8889 31.9601 42.7917L22.8351 37.3125C22.7101 37.2431 22.6302 37.1389 22.5955 37C22.5608 36.8611 22.5781 36.7292 22.6476 36.6042C22.6892 36.5347 22.7517 36.4722 22.8351 36.4167L24.0851 35.6667L32.5017 40.7292L40.9184 35.6667ZM40.9184 30.7708L42.1684 31.5208C42.2934 31.6042 42.3733 31.7153 42.408 31.8542C42.4427 31.9931 42.4253 32.125 42.3559 32.25C42.3142 32.3194 42.2517 32.375 42.1684 32.4167L32.5017 38.2292L22.8351 32.4167C22.7101 32.3472 22.6302 32.2431 22.5955 32.1042C22.5608 31.9653 22.5781 31.8333 22.6476 31.7083C22.6892 31.6389 22.7517 31.5764 22.8351 31.5208L24.0851 30.7708L32.5017 35.8333L40.9184 30.7708ZM33.0434 21.2083L42.1684 26.6875C42.2934 26.7569 42.3733 26.8611 42.408 27C42.4427 27.1389 42.4253 27.2708 42.3559 27.3958C42.3142 27.4653 42.2517 27.5278 42.1684 27.5833L32.5017 33.375L22.8351 27.5833C22.7101 27.5 22.6302 27.3889 22.5955 27.25C22.5608 27.1111 22.5781 26.9792 22.6476 26.8542C22.6892 26.7847 22.7517 26.7292 22.8351 26.6875L31.9601 21.2083C32.1267 21.1111 32.3073 21.0625 32.5017 21.0625C32.6962 21.0625 32.8767 21.1111 33.0434 21.2083ZM32.5017 23.3125L26.1267 27.125L32.5017 30.9583L38.8767 27.125L32.5017 23.3125Z" fill="#101010"/>
</svg>
