<svg width="183" height="40" viewBox="0 0 183 40" fill="none" xmlns="http://www.w3.org/2000/svg">
<g filter="url(#filter0_d_210_361)">
<path d="M23.7361 0L15.9925 9.00069L23.4093 17.5991H17.3753L11.9196 11.2634H8.57577V17.5991H4V0H8.57577V6.71281H11.9196L17.7022 0H23.7361Z" fill="white"/>
<path d="M41.8552 17.5991H29.9632L32.2008 13.0233H37.1286L34.1367 6.98936L28.9073 17.5991H23.8035L31.7483 1.48335C31.9829 1.03081 32.3098 0.670443 32.7288 0.402266C33.1646 0.134089 33.6339 0 34.1367 0C34.6563 0 35.1256 0.134089 35.5446 0.402266C35.9804 0.670443 36.3073 1.03081 36.5252 1.48335L43.3134 15.2358C43.5816 15.7889 43.5564 16.3253 43.238 16.8449C42.9195 17.3477 42.4586 17.5991 41.8552 17.5991Z" fill="white"/>
<path d="M49.7991 13.0233H59.5289V17.5991H45.2234V0H49.7991V13.0233Z" fill="white"/>
<path d="M65.9055 17.5991H61.3297V0H65.9055V17.5991Z" fill="white"/>
<path d="M88.6525 0L80.9089 9.00069L88.3257 17.5991H82.2917L76.836 11.2634H73.4921V17.5991H68.9164V0H73.4921V6.71281H76.836L82.6185 0H88.6525Z" fill="white"/>
<path d="M113.258 0H117.834V7.24078L111.247 17.5991H107.903L103.604 10.836L99.3045 17.5991H95.9858L89.3987 7.24078V0H93.9745V5.90827L97.6452 11.6908L101.316 5.90827V0H105.892V5.90827L109.587 11.6908L113.258 5.90827V0Z" fill="white"/>
<path d="M138.689 4.57577H124.61V6.76309H137.231V10.836H124.61V13.0233H138.689V17.5991H120.034V0H138.689V4.57577Z" fill="white"/>
<path d="M154.27 5.15403C155.996 5.15403 157.463 5.76581 158.669 6.98936C159.893 8.19616 160.505 9.66275 160.505 11.3891C160.505 13.0988 159.893 14.5654 158.669 15.7889C157.463 16.9957 155.996 17.5991 154.27 17.5991H142.73V13.0233H154.27C154.722 13.0233 155.108 12.8641 155.426 12.5457C155.761 12.2272 155.929 11.8417 155.929 11.3891C155.929 10.9366 155.761 10.5511 155.426 10.2326C155.108 9.89741 154.722 9.7298 154.27 9.7298H150.624L149.593 12.4451H146.652C144.942 12.4451 143.476 11.8417 142.252 10.6349C141.045 9.41134 140.442 7.94474 140.442 6.23512C140.442 4.50873 141.045 3.04213 142.252 1.83534C143.476 0.611779 144.942 0 146.652 0H158.217V4.57577H146.652C146.199 4.57577 145.814 4.735 145.495 5.05346C145.177 5.37192 145.018 5.75743 145.018 6.20997C145.018 6.66252 145.177 7.05641 145.495 7.39163C145.814 7.71009 146.199 7.86932 146.652 7.86932H150.297L151.303 5.15403H154.27Z" fill="white"/>
<path d="M178.317 0V4.57577H171.705V17.5991H167.129V4.57577H160.542V0H178.317Z" fill="white"/>
<path d="M29.8395 32H24.0524L25.1413 29.7732H27.5394L26.0834 26.8369L23.5385 32H21.0549L24.9211 24.1574C25.0353 23.9372 25.1943 23.7618 25.3983 23.6313C25.6103 23.5008 25.8387 23.4355 26.0834 23.4355C26.3363 23.4355 26.5647 23.5008 26.7686 23.6313C26.9806 23.7618 27.1397 23.9372 27.2457 24.1574L30.5492 30.8499C30.6797 31.1191 30.6674 31.3801 30.5125 31.633C30.3575 31.8777 30.1332 32 29.8395 32Z" fill="white"/>
<path d="M54.1202 27.3752H56.3469V32H50.7433C49.9684 32 49.2507 31.8083 48.59 31.425C47.9374 31.0416 47.4195 30.5237 47.0361 29.8711C46.6528 29.2104 46.4611 28.4927 46.4611 27.7178C46.4611 26.9429 46.6528 26.2292 47.0361 25.5767C47.4195 24.916 47.9374 24.3939 48.59 24.0106C49.2507 23.6272 49.9684 23.4355 50.7433 23.4355H55.2335V25.6623H50.7433C50.1724 25.6623 49.687 25.8621 49.2874 26.2618C48.8877 26.6615 48.6878 27.1468 48.6878 27.7178C48.6878 28.2887 48.8877 28.7741 49.2874 29.1737C49.687 29.5734 50.1724 29.7732 50.7433 29.7732H54.1202V27.3752Z" fill="white"/>
<path d="M82.2853 25.6623H75.4337V26.7267H81.5757V28.7088H75.4337V29.7732H82.2853V32H73.207V23.4355H82.2853V25.6623Z" fill="white"/>
<path d="M103.265 26.0049C103.052 25.7765 102.759 25.6623 102.384 25.6623C102.082 25.6623 101.829 25.7357 101.625 25.8825C101.429 26.0294 101.331 26.1966 101.331 26.3842V32H99.1047V26.3842C99.1047 25.5685 99.4228 24.8752 100.059 24.3042C100.703 23.7251 101.478 23.4355 102.384 23.4355C102.873 23.4355 103.338 23.5293 103.778 23.7169C104.219 23.9045 104.598 24.1696 104.916 24.5122L107.889 27.7178H104.831L103.265 26.0049ZM108.11 23.4355H110.336V29.0514C110.336 29.5897 110.19 30.0873 109.896 30.544C109.602 30.9927 109.203 31.3475 108.697 31.6085C108.191 31.8695 107.645 32 107.057 32C106.56 32 106.091 31.9062 105.65 31.7186C105.21 31.531 104.835 31.2659 104.525 30.9233L101.576 27.7178H104.598L106.164 29.4307C106.376 29.659 106.674 29.7732 107.057 29.7732C107.253 29.7732 107.433 29.7365 107.596 29.6631C107.759 29.5897 107.885 29.5 107.975 29.394C108.065 29.2798 108.11 29.1656 108.11 29.0514V23.4355Z" fill="white"/>
<path d="M131.24 25.6623C130.669 25.6623 130.184 25.8621 129.784 26.2618C129.385 26.6615 129.185 27.1468 129.185 27.7178C129.185 28.2887 129.385 28.7741 129.784 29.1737C130.184 29.5734 130.669 29.7732 131.24 29.7732H135.07V32H131.24C130.465 32 129.747 31.8083 129.087 31.425C128.434 31.0416 127.916 30.5237 127.533 29.8711C127.15 29.2104 126.958 28.4927 126.958 27.7178C126.958 26.9429 127.15 26.2292 127.533 25.5767C127.916 24.916 128.434 24.3939 129.087 24.0106C129.747 23.6272 130.465 23.4355 131.24 23.4355H135.07V25.6623H131.24Z" fill="white"/>
<path d="M159.889 23.4355V25.907L156.732 28.7333V32H154.518V28.7333L151.361 25.907V23.4355H153.588V24.916L155.619 26.7512L157.662 24.916V23.4355H159.889Z" fill="white"/>
</g>
<defs>
<filter id="filter0_d_210_361" x="0" y="0" width="182.316" height="40" filterUnits="userSpaceOnUse" color-interpolation-filters="sRGB">
<feFlood flood-opacity="0" result="BackgroundImageFix"/>
<feColorMatrix in="SourceAlpha" type="matrix" values="0 0 0 0 0 0 0 0 0 0 0 0 0 0 0 0 0 0 127 0" result="hardAlpha"/>
<feOffset dy="4"/>
<feGaussianBlur stdDeviation="2"/>
<feComposite in2="hardAlpha" operator="out"/>
<feColorMatrix type="matrix" values="0 0 0 0 0 0 0 0 0 0 0 0 0 0 0 0 0 0 0.25 0"/>
<feBlend mode="normal" in2="BackgroundImageFix" result="effect1_dropShadow_210_361"/>
<feBlend mode="normal" in="SourceGraphic" in2="effect1_dropShadow_210_361" result="shape"/>
</filter>
</defs>
</svg>
