<svg width="32" height="31" viewBox="0 0 32 31" fill="none" xmlns="http://www.w3.org/2000/svg">
<path d="M15.803 10.8089C15.8628 12.4462 17.7266 13.3473 19.0416 12.3751L27.7031 5.97109L27.7081 5.96547L17.487 11.4592L15.4123 0.0919895L15.803 10.8089Z" fill="#3D27FF"/>
<path d="M27.6989 5.97603L19.5399 13.0014C18.3002 14.0687 18.7598 16.0913 20.3383 16.5162L30.7471 19.3152L20.0909 14.7309L27.6989 5.97603Z" fill="#3D27FF"/>
<path d="M0.17096 19.2644L10.4623 16.5098C12.0409 16.0871 12.5026 14.0652 11.2642 12.9964L3.16075 6.0021L3.09188 5.96476L10.7097 14.7309L0.17096 19.2644Z" fill="#3D27FF"/>
<path d="M11.7632 12.3701C13.0775 13.3438 14.9421 12.4448 15.0039 10.8082L15.4081 0.0652265L15.4003 0.0229492L13.313 11.4585L3.1987 6.02183L11.7639 12.3701H11.7632Z" fill="#3D27FF"/>
<path d="M30.7485 19.3159H30.7463L20.1591 17.2974C18.5539 16.9917 17.2621 18.6128 17.9157 20.1141L22.2169 30.0039L22.2303 30.0229L19.1611 18.8121L30.7478 19.3166L30.7485 19.3159Z" fill="#3D27FF"/>
<path d="M8.59282 29.9356L12.8793 20.1105C13.5343 18.6099 12.2447 16.9868 10.6387 17.2911L0.130904 19.2813L0.0507812 19.3159L11.6374 18.8114L8.59213 29.9363L8.59282 29.9356Z" fill="#3D27FF"/>
<path d="M17.1953 20.4607C16.4328 19.0115 14.3637 19.0108 13.5997 20.4586L8.5858 29.9616L8.56963 30.0222L15.4003 20.6269L22.2127 29.9976L17.1953 20.4614V20.4607Z" fill="#3D27FF"/>
<path d="M15.803 10.8089C15.8628 12.4462 17.7266 13.3473 19.0416 12.3751L27.7031 5.97109L27.7081 5.96547L17.487 11.4592L15.4123 0.0919895L15.803 10.8089Z" stroke="#3D27FF" stroke-width="0.254237"/>
<path d="M27.6989 5.97603L19.5399 13.0014C18.3002 14.0687 18.7598 16.0913 20.3383 16.5162L30.7471 19.3152L20.0909 14.7309L27.6989 5.97603Z" stroke="#3D27FF" stroke-width="0.254237"/>
<path d="M0.17096 19.2644L10.4623 16.5098C12.0409 16.0871 12.5026 14.0652 11.2642 12.9964L3.16075 6.0021L3.09188 5.96476L10.7097 14.7309L0.17096 19.2644Z" stroke="#3D27FF" stroke-width="0.254237"/>
<path d="M11.7632 12.3701C13.0775 13.3438 14.9421 12.4448 15.0039 10.8082L15.4081 0.0652265L15.4003 0.0229492L13.313 11.4585L3.1987 6.02183L11.7639 12.3701H11.7632Z" stroke="#3D27FF" stroke-width="0.254237"/>
<path d="M30.7485 19.3159H30.7463L20.1591 17.2974C18.5539 16.9917 17.2621 18.6128 17.9157 20.1141L22.2169 30.0039L22.2303 30.0229L19.1611 18.8121L30.7478 19.3166L30.7485 19.3159Z" stroke="#3D27FF" stroke-width="0.254237"/>
<path d="M8.59282 29.9356L12.8793 20.1105C13.5343 18.6099 12.2447 16.9868 10.6387 17.2911L0.130904 19.2813L0.0507812 19.3159L11.6374 18.8114L8.59213 29.9363L8.59282 29.9356Z" stroke="#3D27FF" stroke-width="0.254237"/>
<path d="M17.1953 20.4607C16.4328 19.0115 14.3637 19.0108 13.5997 20.4586L8.5858 29.9616L8.56963 30.0222L15.4003 20.6269L22.2127 29.9976L17.1953 20.4614V20.4607Z" stroke="#3D27FF" stroke-width="0.254237"/>
</svg>
