<svg width="20" height="20" viewBox="0 0 20 20" fill="none" xmlns="http://www.w3.org/2000/svg">
<path d="M15.7919 12.3893C15.3824 11.9629 14.8886 11.735 14.3651 11.735C13.8459 11.735 13.3478 11.9587 12.9215 12.3851L11.5876 13.7147C11.4778 13.6556 11.3681 13.6008 11.2626 13.5459C11.1106 13.4699 10.9671 13.3981 10.8447 13.3222C9.59521 12.5286 8.45971 11.4944 7.37065 10.1563C6.843 9.48933 6.48843 8.92791 6.23093 8.35806C6.57707 8.04147 6.89788 7.71222 7.21025 7.39563C7.32844 7.27744 7.44663 7.15502 7.56482 7.03683C8.45127 6.15038 8.45127 5.00223 7.56482 4.11578L6.41244 2.9634C6.28159 2.83254 6.14651 2.69747 6.01988 2.56239C5.7666 2.30068 5.50067 2.03052 5.22629 1.77725C4.81684 1.37202 4.32719 1.15674 3.8122 1.15674C3.29722 1.15674 2.79912 1.37202 2.377 1.77725C2.37278 1.78147 2.37278 1.78147 2.36856 1.78569L0.933364 3.23355C0.393054 3.77386 0.0849082 4.43237 0.0173695 5.1964C-0.0839386 6.42898 0.279082 7.57714 0.557679 8.32851C1.24151 10.1732 2.26303 11.8827 3.78688 13.7147C5.63575 15.9224 7.86031 17.6657 10.4015 18.8941C11.3723 19.3542 12.6682 19.8987 14.1161 19.9916C14.2047 19.9958 14.2976 20 14.382 20C15.3571 20 16.176 19.6497 16.8176 18.9532C16.8219 18.9448 16.8303 18.9405 16.8345 18.9321C17.054 18.6662 17.3073 18.4255 17.5732 18.1681C17.7547 17.995 17.9405 17.8135 18.122 17.6235C18.5399 17.1887 18.7594 16.6822 18.7594 16.163C18.7594 15.6396 18.5356 15.1373 18.1093 14.7151L15.7919 12.3893ZM17.3031 16.8342C17.2988 16.8342 17.2988 16.8384 17.3031 16.8342C17.1384 17.0115 16.9696 17.1719 16.7881 17.3492C16.5137 17.6109 16.2351 17.8852 15.9734 18.1934C15.5471 18.6493 15.0447 18.8646 14.3862 18.8646C14.3229 18.8646 14.2554 18.8646 14.1921 18.8603C12.9384 18.7801 11.7733 18.2905 10.8995 17.8726C8.51037 16.716 6.41244 15.0739 4.6691 12.9929C3.22968 11.258 2.26725 9.65396 1.62986 7.93172C1.23729 6.88065 1.09377 6.06174 1.15709 5.28926C1.1993 4.79539 1.38925 4.38593 1.73961 4.03558L3.17903 2.59616C3.38586 2.40198 3.60537 2.29645 3.82065 2.29645C4.08658 2.29645 4.30186 2.45686 4.43694 2.59194C4.44116 2.59616 4.44538 2.60038 4.4496 2.6046C4.70709 2.84521 4.95192 3.09426 5.20941 3.36019C5.34027 3.49527 5.47534 3.63034 5.61042 3.76964L6.7628 4.92202C7.21025 5.36947 7.21025 5.78314 6.7628 6.23059C6.64039 6.353 6.52219 6.47541 6.39978 6.59361C6.0452 6.95663 5.70751 7.29432 5.34027 7.62357C5.33182 7.63201 5.32338 7.63624 5.31916 7.64468C4.95614 8.0077 5.02368 8.36228 5.09966 8.60288C5.10388 8.61555 5.1081 8.62821 5.11232 8.64087C5.41203 9.36692 5.83414 10.0507 6.47576 10.8654L6.47998 10.8697C7.64503 12.3049 8.87339 13.4235 10.2284 14.2804C10.4015 14.3901 10.5787 14.4788 10.7476 14.5632C10.8995 14.6392 11.0431 14.7109 11.1655 14.7869C11.1824 14.7953 11.1993 14.808 11.2161 14.8164C11.3597 14.8882 11.4947 14.922 11.634 14.922C11.9844 14.922 12.2039 14.7025 12.2757 14.6307L13.7193 13.1871C13.8628 13.0436 14.0908 12.8705 14.3567 12.8705C14.6184 12.8705 14.8337 13.0351 14.9645 13.1786C14.9688 13.1829 14.9688 13.1829 14.973 13.1871L17.2988 15.5129C17.7336 15.9435 17.7336 16.3867 17.3031 16.8342Z" fill="white"/>
<path d="M10.7972 4.75741C11.9031 4.94315 12.9078 5.46657 13.7098 6.26859C14.5118 7.07062 15.031 8.07525 15.221 9.1812C15.2674 9.4598 15.508 9.65397 15.7824 9.65397C15.8162 9.65397 15.8457 9.64975 15.8795 9.64553C16.1918 9.59488 16.3987 9.29939 16.348 8.98703C16.1201 7.64892 15.4869 6.429 14.5203 5.46235C13.5536 4.4957 12.3337 3.86253 10.9956 3.63458C10.6832 3.58393 10.392 3.79077 10.3371 4.09891C10.2822 4.40706 10.4848 4.70676 10.7972 4.75741Z" fill="white"/>
<path d="M19.964 8.82249C19.5883 6.61904 18.5499 4.61399 16.9543 3.01838C15.3587 1.42278 13.3536 0.384372 11.1502 0.0086878C10.842 -0.0461874 10.5508 0.164871 10.4959 0.473017C10.4453 0.785383 10.6521 1.07664 10.9645 1.13152C12.9315 1.46499 14.7255 2.39787 16.1523 3.82041C17.579 5.24716 18.5077 7.04116 18.8412 9.00823C18.8876 9.28682 19.1282 9.481 19.4026 9.481C19.4363 9.481 19.4659 9.47678 19.4997 9.47255C19.8078 9.42612 20.0189 9.13064 19.964 8.82249Z" fill="white"/>
</svg>
