<svg width="113" height="113" viewBox="0 0 113 113" fill="none" xmlns="http://www.w3.org/2000/svg">
<path d="M74.4192 17.9118C75.2882 20.465 76.5349 22.9192 78.1502 25.2027C82.0461 30.7167 87.6411 34.6335 93.8895 36.4106L71.9588 46.8692C68.3506 48.5893 66.1749 52.1404 66.2768 56.135C66.3787 60.1297 68.7342 63.564 72.4233 65.0983L94.8484 74.424C88.9447 76.4259 83.7393 80.3755 80.1131 85.7996C78.4109 88.3439 77.1522 91.065 76.3491 93.8819L65.8992 71.9668C64.227 68.4606 60.7747 66.2819 56.8938 66.2819C53.0129 66.2819 49.2249 68.6973 47.6696 72.4312L38.3405 94.8647C37.4714 92.3085 36.2247 89.8573 34.6095 87.5678C30.7136 82.0568 25.1185 78.1371 18.8702 76.363L40.8009 65.9044C44.409 64.1843 46.5847 60.6332 46.4828 56.6385C46.3809 52.6439 44.0254 49.2096 40.3364 47.6753L17.9112 38.3494C23.8149 36.3476 29.0204 32.3979 32.6465 26.9738C34.3487 24.4296 35.6074 21.7085 36.4105 18.8915L46.8604 40.8068C48.5327 44.313 51.985 46.4915 55.8659 46.4915C59.7467 46.4915 63.5347 44.0761 65.0901 40.3422L74.4162 17.9118M77.9254 0.383789L61.8685 38.9997C60.7657 41.6548 58.3202 42.9974 55.8718 42.9974C53.4235 42.9974 51.1998 41.7747 50.0191 39.3024L32.0172 1.55249C39.1436 18.8227 25.8198 36.3386 8.92674 36.3386C6.14869 36.3386 3.27774 35.8651 0.382812 34.8402L38.9998 50.8968C44.1843 53.0514 44.3701 60.3305 39.3025 62.7458L1.55157 80.7472C4.8151 79.4016 8.08763 78.7844 11.2493 78.7844C27.5669 78.7844 40.9237 95.2065 34.8402 112.384L50.8971 73.7678C52 71.1127 54.4454 69.7702 56.8938 69.7702C59.3422 69.7702 61.5658 70.9929 62.7465 73.4652L80.7484 111.215C73.622 93.9448 86.9458 76.4288 103.839 76.4288C106.617 76.4288 109.488 76.9023 112.383 77.9272L73.7658 61.8708C68.5814 59.7162 68.3955 52.4371 73.4632 50.0217L111.214 32.0203C107.951 33.3658 104.678 33.9832 101.516 33.9832C85.1987 33.9832 71.8389 17.5611 77.9254 0.383789Z" fill="#3D27FF"/>
<path d="M74.4191 17.9118C75.2882 20.465 76.5349 22.9192 78.1502 25.2027C82.046 30.7167 87.6411 34.6335 93.8895 36.4106L71.9588 46.8692C68.3506 48.5893 66.1749 52.1404 66.2768 56.135C66.3787 60.1297 68.7342 63.564 72.4233 65.0983L94.8484 74.424C88.9447 76.4259 83.7392 80.3755 80.1131 85.7996C78.4109 88.3439 77.1522 91.065 76.3491 93.8819L65.8992 71.9668C64.227 68.4606 60.7747 66.2819 56.8938 66.2819C53.0129 66.2819 49.2249 68.6973 47.6696 72.4312L38.3405 94.8647C37.4714 92.3085 36.2247 89.8573 34.6095 87.5678C30.7136 82.0568 25.1185 78.1371 18.8702 76.363L40.8009 65.9044C44.409 64.1843 46.5847 60.6332 46.4828 56.6385C46.3809 52.6439 44.0254 49.2096 40.3364 47.6753L17.9112 38.3494C23.8149 36.3476 29.0204 32.3979 32.6465 26.9738C34.3487 24.4296 35.6074 21.7085 36.4105 18.8915L46.8604 40.8068C48.5327 44.313 51.985 46.4915 55.8659 46.4915C59.7467 46.4915 63.5347 44.0761 65.0901 40.3422L74.4161 17.9118M77.9254 0.383789L61.8685 38.9997C60.7657 41.6548 58.3202 42.9974 55.8719 42.9974C53.4235 42.9974 51.1998 41.7747 50.0191 39.3024L32.0172 1.55249C39.1436 18.8227 25.8198 36.3386 8.92674 36.3386C6.14869 36.3386 3.27774 35.8651 0.382812 34.8402L38.9998 50.8968C44.1843 53.0514 44.3701 60.3305 39.3025 62.7458L1.55157 80.7472C4.8151 79.4016 8.08763 78.7844 11.2493 78.7844C27.5669 78.7844 40.9237 95.2065 34.8402 112.384L50.8971 73.7678C52 71.1127 54.4454 69.7702 56.8938 69.7702C59.3422 69.7702 61.5658 70.9929 62.7465 73.4652L80.7484 111.215C73.622 93.9448 86.9458 76.4288 103.839 76.4288C106.617 76.4288 109.488 76.9023 112.383 77.9272L73.7658 61.8708C68.5814 59.7162 68.3955 52.4371 73.4632 50.0217L111.214 32.0203C107.951 33.3658 104.678 33.9832 101.516 33.9832C85.1987 33.9832 71.8389 17.5611 77.9254 0.383789Z" stroke="#3D27FF" stroke-width="2"/>
</svg>
