<svg width="80" height="80" viewBox="0 0 80 80" fill="none" xmlns="http://www.w3.org/2000/svg">
<path d="M32.8058 80.0001H18.9929C8.50526 80.0001 0 71.4949 0 61.0073V47.1943H6.97045V61.0073C6.97045 67.594 12.3422 72.9658 18.9289 72.9658H32.7419V80.0001H32.8058Z" fill="#DDDDFF"/>
<path d="M61.0083 80.0001H47.1953V73.0297H61.0083C67.595 73.0297 72.9668 67.658 72.9668 61.0713V47.1943H79.9371V61.0073C80.0011 71.431 71.4319 80.0001 61.0083 80.0001Z" fill="#DDDDFF"/>
<path d="M80.0012 32.8058H73.0307V18.9929C73.0307 12.4061 67.6589 7.03442 61.0722 7.03442H47.1953V0.0639648H61.0083C71.4959 0.0639648 80.0012 8.56918 80.0012 19.0568V32.8058Z" fill="#DDDDFF"/>
<path d="M7.03287 32.8058H0.0625V18.9928C0.0625 8.50522 8.56768 0 19.0553 0H32.8683V6.97041H19.0553C12.4686 6.97041 7.09688 12.3421 7.09688 18.9289V32.8058H7.03287Z" fill="#DDDDFF"/>
</svg>
