<svg width="78" height="83" viewBox="0 0 78 83" fill="none" xmlns="http://www.w3.org/2000/svg">
<path d="M38.5351 81.247C49.5894 81.247 58.5507 72.2857 58.5507 61.2314C58.5507 50.1771 49.5894 41.2158 38.5351 41.2158C27.4808 41.2158 18.5195 50.1771 18.5195 61.2314C18.5195 72.2857 27.4808 81.247 38.5351 81.247Z" stroke="#DDDDFF" stroke-width="2.49415" stroke-miterlimit="10"/>
<path d="M38.5351 41.2782C49.5894 41.2782 58.5507 32.317 58.5507 21.2627C58.5507 10.2084 49.5894 1.24707 38.5351 1.24707C27.4808 1.24707 18.5195 10.2084 18.5195 21.2627C18.5195 32.317 27.4808 41.2782 38.5351 41.2782Z" stroke="#DDDDFF" stroke-width="2.49415" stroke-miterlimit="10"/>
<path d="M55.8671 51.2548C66.9214 51.2548 75.8827 42.2935 75.8827 31.2392C75.8827 20.1849 66.9214 11.2236 55.8671 11.2236C44.8128 11.2236 35.8516 20.1849 35.8516 31.2392C35.8516 42.2935 44.8128 51.2548 55.8671 51.2548Z" stroke="#DDDDFF" stroke-width="2.49415" stroke-miterlimit="10"/>
<path d="M21.2617 71.2704C32.316 71.2704 41.2772 62.3091 41.2772 51.2548C41.2772 40.2005 32.316 31.2393 21.2617 31.2393C10.2074 31.2393 1.24609 40.2005 1.24609 51.2548C1.24609 62.3091 10.2074 71.2704 21.2617 71.2704Z" stroke="#DDDDFF" stroke-width="2.49415" stroke-miterlimit="10"/>
<path d="M21.2617 51.2548C32.316 51.2548 41.2772 42.2935 41.2772 31.2392C41.2772 20.1849 32.316 11.2236 21.2617 11.2236C10.2074 11.2236 1.24609 20.1849 1.24609 31.2392C1.24609 42.2935 10.2074 51.2548 21.2617 51.2548Z" stroke="#DDDDFF" stroke-width="2.49415" stroke-miterlimit="10"/>
<path d="M55.8671 71.2704C66.9214 71.2704 75.8827 62.3091 75.8827 51.2548C75.8827 40.2005 66.9214 31.2393 55.8671 31.2393C44.8128 31.2393 35.8516 40.2005 35.8516 51.2548C35.8516 62.3091 44.8128 71.2704 55.8671 71.2704Z" stroke="#DDDDFF" stroke-width="2.49415" stroke-miterlimit="10"/>
</svg>
