<svg width="81" height="80" viewBox="0 0 81 80" fill="none" xmlns="http://www.w3.org/2000/svg">
<path d="M51.7009 3.48633C42.7905 7.29585 36.5273 16.2063 36.5273 26.5372C36.5273 31.509 37.9478 36.0933 40.4014 39.9674C40.3369 39.3863 40.3369 38.8051 40.3369 38.224C40.3369 24.3419 51.5718 13.1716 65.3894 13.1716C67.5201 13.1716 69.5217 13.4298 71.4588 13.9464C67.0036 7.74784 59.8365 3.68003 51.7009 3.48633Z" fill="#DDDDFF"/>
<path d="M14.3808 11.9451C13.2186 21.6304 17.803 31.4447 26.778 36.6748C31.0395 39.1283 35.7529 40.226 40.4018 40.0323C39.8853 39.774 39.3688 39.5158 38.8522 39.1929C26.8425 32.2841 22.7747 16.9169 29.6835 4.90721C30.7166 3.0993 32.008 1.4205 33.3639 0C25.7449 0.774819 18.6423 4.97175 14.3808 11.9451Z" fill="#DDDDFF"/>
<path d="M3.08136 48.4905C10.8941 54.3017 21.677 55.2702 30.652 50.1047C34.9135 47.6512 38.2065 44.0999 40.3372 40.0321C39.8853 40.3549 39.3687 40.6778 38.8522 40.936C26.8425 47.8448 11.5398 43.777 4.56644 31.7673C3.53334 29.9594 2.69396 28.0224 2.17741 26.1499C-0.921863 33.0587 -0.79273 41.3235 3.08136 48.4905Z" fill="#DDDDFF"/>
<path d="M29.0352 76.5133C37.9456 72.7038 44.2088 63.7933 44.2088 53.4624C44.2088 48.4907 42.7883 43.9063 40.3347 40.0322C40.3992 40.6133 40.3992 41.1945 40.3992 41.7756C40.3992 55.6577 29.1644 66.828 15.3468 66.828C13.216 66.828 11.2144 66.5698 9.27734 66.0532C13.7326 72.2518 20.8996 76.3196 29.0352 76.5133Z" fill="#DDDDFF"/>
<path d="M66.3569 68.0547C67.5192 58.3695 62.9348 48.5551 53.9598 43.3251C49.6983 40.8715 44.9849 39.7739 40.3359 39.9676C40.8525 40.2258 41.369 40.4841 41.8856 40.8069C53.8953 47.7157 57.9631 63.083 51.0543 75.0927C50.0212 76.9006 48.7298 78.5794 47.3739 79.9999C54.9929 79.2251 62.0954 75.0281 66.3569 68.0547Z" fill="#DDDDFF"/>
<path d="M77.6582 31.5088C69.8455 25.6977 59.0626 24.7292 50.0876 29.8946C45.8261 32.3482 42.5331 35.8995 40.4023 39.9673C40.8543 39.6445 41.3709 39.3216 41.8874 39.0633C53.8971 32.1545 69.1998 36.2223 76.1732 48.232C77.2063 50.04 78.0456 51.977 78.5622 53.8495C81.6615 46.9407 81.5323 38.6759 77.6582 31.5088Z" fill="#DDDDFF"/>
</svg>
