<svg width="82" height="80" viewBox="0 0 82 80" fill="none" xmlns="http://www.w3.org/2000/svg">
<path d="M42.006 28.7627C42.1653 33.1287 47.1356 35.5316 50.6422 32.939L73.7396 15.8617L73.7528 15.8467L46.4966 30.4967L40.964 0.184107L42.006 28.7627Z" fill="#DDDDFF"/>
<path d="M73.7284 15.8749L51.9711 34.6091C48.665 37.4553 49.8907 42.849 54.1001 43.9819L81.8567 51.4459L53.4404 39.2213L73.7284 15.8749Z" fill="#DDDDFF"/>
<path d="M0.320478 51.3106L27.7641 43.965C31.9735 42.8377 33.2048 37.4459 29.9025 34.596L8.29325 15.9444L8.10958 15.8448L28.4238 39.2213L0.320478 51.3106Z" fill="#DDDDFF"/>
<path d="M31.2332 32.9258C34.7379 35.5221 39.7101 33.125 39.8751 28.7608L40.9527 0.112739L40.9321 0L35.3658 30.4948L8.39444 15.997L31.2351 32.9258H31.2332Z" fill="#DDDDFF"/>
<path d="M81.8605 51.4478H81.8548L53.6221 46.0653C49.3415 45.25 45.8968 49.5728 47.6398 53.5763L59.1097 79.9493L59.1454 80L50.9608 50.1045L81.8586 51.4497L81.8605 51.4478Z" fill="#DDDDFF"/>
<path d="M22.7788 79.767L34.2094 53.5669C35.9562 49.5653 32.517 45.2368 28.2345 46.0484L0.213659 51.3557L0 51.4478L30.8977 50.1026L22.7769 79.7689L22.7788 79.767Z" fill="#DDDDFF"/>
<path d="M45.7188 54.5006C43.6853 50.6362 38.1677 50.6343 36.1305 54.495L22.76 79.8365L22.7169 79.9981L40.9321 54.944L59.0986 79.9323L45.7188 54.5025V54.5006Z" fill="#DDDDFF"/>
</svg>
