<svg width="577" height="200" viewBox="0 0 577 200" fill="none" xmlns="http://www.w3.org/2000/svg">
<g opacity="0.05">
<path d="M191.27 149.715V115.655H172.556V94.2565H160.914V80.5967H172.556V62.8723H162.054V49.2125H172.556V38.7296H132.935V36.2904H172.556V33.6072H131.636V49.8682H130.652V56.0404H122.21V49.8682H112.122V42.3885H109.202V28.7287H112.12V19.6216H131.634V28.7287H172.554V7.01758H105.989L88.1997 32.3876H107.2V34.8268H86.4902L84.6091 37.51H103.3V42.3885H81.1883L62.5467 68.9762H97.3244V79.9528H54.8504L27.1367 119.476V134.724H96.1379V138.393H27.1367V147.276H150.152V149.715H27.1367V158.008H48.0498V166.302H27.1367V171.411H108.484V178.498H154.401V192.646H108.484V200H172.556V171.413H191.27V159.226H177.919V149.717H191.27V149.715ZM45.9286 128.568H37.4869V120.126H45.9286V128.568ZM66.588 122.485H52.9283V108.826H66.588V122.485ZM134.399 119.225H110.738V115.655H93.4352L110.738 89.2199V79.223H134.399V119.225ZM154.375 79.2952H145.934V70.8535H154.375V79.2952Z" fill="#EFBA0D"/>
<path d="M365.596 120.005C366.323 113.489 366.71 106.614 366.71 99.3512C366.71 79.9251 364.052 63.1646 358.916 49.2122H298.805V39.703H354.838C341.83 13.7632 318.393 0 285.813 0C266.629 0 250.627 4.78872 238.045 14.009H315.718V18.8875H232.156C228.575 22.2225 225.349 26.0082 222.453 30.1919H242.215V42.3881H215.528C208.54 57.568 204.918 76.6429 204.918 99.3512C204.918 103.476 205.064 107.453 205.3 111.339H226.606V139.96H209.705C210.602 143.343 211.603 146.61 212.747 149.717H268.787V159.226H216.829C218.158 161.876 219.598 164.397 221.142 166.791H306.613V171.67H224.6C238.31 189.55 258.944 198.96 285.815 198.96C330.964 198.96 358.539 172.445 365.147 123.675H323.838V120.007H365.596V120.005ZM320.431 22.7903H328.808V31.1676H320.431V22.7903ZM317.831 127.274V146.788H287.097V138.453C286.67 138.477 286.264 138.525 285.813 138.525C270.358 138.525 267.427 124.756 267.427 99.3493C267.427 76.2233 269.917 62.8387 282.218 60.7546V53.6086H319.295V79.4646H302.845C303.522 84.0386 303.816 89.442 303.9 95.5636H326.127V102.881H303.912C303.785 113.177 303.053 121.353 301.01 127.274H317.831Z" fill="#EFBA0D"/>
<path d="M527.594 18.8877H499.801V21.5709H527.594V18.8877Z" fill="#EFBA0D"/>
<path d="M527.597 115.655V79.5352H520.284V65.8754H527.597V48.151H521.423V34.4912H527.597V24.0084H499.804V60.9248H474.924V39.9473H473.948V27.6672H468.572V14.0075H473.948V7.01562H461.034L453.566 17.6663H466.572V20.1056H451.854L449.973 22.7887H462.669V27.6672H446.552L436.914 41.4109H471.021V54.5828H427.678L415.363 72.1453H444.677V116.539H384.235L382.176 119.474V120.003H455.505V123.672H382.176V132.554H509.522V134.994H382.176V145.322H432.479V163.373H382.176V171.409H463.525V184.35H492.486V189.717H463.525V199.999H527.597V171.411H546.311V115.655H527.597ZM491.996 122.396H462.725V115.655H448.474L462.725 93.8838V80.4406H491.996V122.396ZM513.743 64.5758H505.301V56.1341H513.743V64.5758Z" fill="#EFBA0D"/>
<path d="M527.594 7.01758H499.801V14.0094H527.594V7.01758Z" fill="#EFBA0D"/>
<path d="M18.4914 108.825H0V122.485H18.4914V108.825Z" fill="#EFBA0D"/>
<path d="M189.949 42.3828H176.289V56.0426H189.949V42.3828Z" fill="#EFBA0D"/>
<path d="M202.028 50.2017H193.586V58.6434H202.028V50.2017Z" fill="#EFBA0D"/>
<path d="M383.202 75.5679H377.852V89.2276H383.202V75.5679Z" fill="#EFBA0D"/>
<path d="M549.308 27.6606H535.648V41.3204H549.308V27.6606Z" fill="#EFBA0D"/>
<path d="M561.387 35.4805H552.945V43.9222H561.387V35.4805Z" fill="#EFBA0D"/>
<path d="M403.203 62.8726H394.762V71.3143H403.203V62.8726Z" fill="#EFBA0D"/>
<path d="M362.959 22.7905H354.582V31.1679H362.959V22.7905Z" fill="#EFBA0D"/>
</g>
<g opacity="0.1556">
<path d="M191.704 149.715V115.655H172.99V94.2565H161.35V80.5967H172.99V62.8723H162.488V49.2125H172.99V38.7296H133.369V36.2904H172.99V33.6072H131.634V49.8682H131.086V56.0404H122.644V49.8682H112.122V42.3885H109.638V28.7287H112.122V19.6216H131.636V28.7287H172.992V7.01758H106.426L88.6372 32.3876H107.638V34.8268H86.9277L85.0466 37.51H103.735V42.3885H81.6239L62.9822 68.9762H97.3248V79.9528H55.284L27.5703 119.476V134.724H96.5715V138.393H27.5703V147.276H150.586V149.715H27.5703V158.008H48.0502V166.302H27.5703V171.411H108.918V178.498H154.401V192.646H108.918V200H172.99V171.413H191.704V159.226H178.352V149.717H191.704V149.715ZM46.3642 128.568H37.9224V120.126H46.3642V128.568ZM67.0235 122.485H53.3638V108.826H67.0235V122.485ZM134.399 119.225H110.739V115.655H93.8688L110.739 89.8815V79.221H134.399V119.225ZM154.809 79.2952H146.367V70.8535H154.809V79.2952Z" fill="#EFBA0D"/>
<path d="M366.031 120.005C366.759 113.489 367.145 106.614 367.145 99.3512C367.145 79.9251 364.488 63.1646 359.353 49.2122H299.243V39.703H355.275C342.267 13.7632 318.831 0 286.25 0C267.066 0 251.063 4.78872 238.482 14.009H316.155V18.8875H232.591C229.01 22.2225 225.785 26.0082 222.889 30.1919H242.215V42.3881H215.961C208.973 57.568 205.352 76.6429 205.352 99.3512C205.352 103.476 205.498 107.453 205.734 111.339H226.606V139.96H210.138C211.036 143.343 212.035 146.61 213.181 149.717H269.219V159.226H217.263C218.592 161.876 220.032 164.397 221.575 166.791H307.046V171.67H225.033C238.744 189.55 259.378 198.96 286.248 198.96C331.396 198.96 358.973 172.445 365.58 123.675H324.271V120.007H366.031V120.005ZM320.864 22.7903H329.242V31.1676H320.864V22.7903ZM317.832 127.274V146.788H287.097V138.479C286.809 138.488 286.545 138.527 286.248 138.527C270.793 138.527 267.862 124.758 267.862 99.3512C267.862 76.5024 270.298 63.1685 282.219 60.8385V53.6086H319.295V79.4646H303.278C303.957 84.0386 304.25 89.442 304.334 95.5636H326.125V102.881H304.344C304.217 113.177 303.485 121.353 301.442 127.274H317.832Z" fill="#EFBA0D"/>
<path d="M528.028 7.01758H499.801V14.0094H528.028V7.01758Z" fill="#EFBA0D"/>
<path d="M528.028 18.8877H499.801V21.5709H528.028V18.8877Z" fill="#EFBA0D"/>
<path d="M528.025 115.655V79.5352H520.711V65.8754H528.025V48.151H521.851V34.4912H528.025V24.0084H499.798V60.9248H474.918V39.9473H473.942V27.6672H469.001V14.0075H473.942V7.01562H461.461L453.993 17.6663H466.999V20.1056H452.282L450.401 22.7887H463.096V27.6672H446.98L437.342 41.4109H471.015V54.5828H428.106L415.791 72.1453H444.669V116.539H384.66L382.602 119.474V120.003H455.931V123.672H382.602V132.554H509.947V134.994H382.602V145.322H432.471V163.373H382.602V171.409H463.951V184.35H492.479V189.717H463.951V199.999H528.023V171.411H546.737V115.655H528.025ZM491.991 122.396H462.72V115.655H448.902L462.72 94.5453V80.4406H491.991V122.396ZM514.17 64.5758H505.729V56.1341H514.17V64.5758Z" fill="#EFBA0D"/>
<path d="M18.925 108.825H0.433594V122.485H18.925V108.825Z" fill="#EFBA0D"/>
<path d="M190.382 42.3828H176.723V56.0426H190.382V42.3828Z" fill="#EFBA0D"/>
<path d="M202.453 50.2017H194.012V58.6434H202.453V50.2017Z" fill="#EFBA0D"/>
<path d="M383.207 75.5679H378.289V89.2276H383.207V75.5679Z" fill="#EFBA0D"/>
<path d="M549.742 27.6606H536.082V41.3204H549.742V27.6606Z" fill="#EFBA0D"/>
<path d="M561.821 35.4805H553.379V43.9222H561.821V35.4805Z" fill="#EFBA0D"/>
<path d="M403.637 62.8726H395.195V71.3143H403.637V62.8726Z" fill="#EFBA0D"/>
<path d="M363.393 22.7905H355.016V31.1679H363.393V22.7905Z" fill="#EFBA0D"/>
</g>
<g opacity="0.2611">
<path d="M192.135 149.715V115.655H173.422V94.2565H161.78V80.5967H173.422V62.8723H162.919V49.2125H173.422V38.7296H133.801V36.2904H173.422V33.6072H131.633V49.8682H131.517V56.0404H123.076V49.8682H112.119V42.3885H110.068V28.7287H112.119V19.6216H131.633V28.7287H173.422V7.01758H106.856L89.0668 32.3876H108.068V34.8268H87.3574L85.4763 37.51H104.167V42.3885H82.0575L63.4139 68.9762H97.3232V79.9528H55.7176L28.0039 119.476V134.724H97.0051V138.393H28.0039V147.276H151.02V149.715H28.0039V158.008H48.0505V166.302H28.0039V171.411H109.352V178.498H154.401V192.646H109.352V200H173.424V171.413H192.137V159.226H178.786V149.717H192.135V149.715ZM46.7958 128.568H38.3541V120.126H46.7958V128.568ZM67.4552 122.485H53.7954V108.826H67.4552V122.485ZM134.398 119.225H110.737V115.655H94.3005L110.737 90.545V79.221H134.398V119.225ZM155.241 79.2952H146.799V70.8535H155.241V79.2952Z" fill="#EFBA0D"/>
<path d="M366.469 120.005C367.196 113.489 367.583 106.614 367.583 99.3512C367.583 79.9251 364.925 63.1646 359.791 49.2122H299.68V39.703H355.713C342.705 13.7632 319.268 0 286.688 0C267.504 0 251.502 4.78872 238.92 14.009H316.591V18.8875H233.031C229.448 22.2225 226.222 26.0082 223.328 30.1919H242.222V42.3881H216.399C209.411 57.568 205.789 76.6429 205.789 99.3512C205.789 103.476 205.935 107.453 206.172 111.339H226.608V139.96H210.574C211.472 143.343 212.473 146.61 213.616 149.717H269.656V159.226H217.698C219.027 161.876 220.467 164.397 222.011 166.791H307.482V171.67H225.469C239.179 189.55 259.813 198.96 286.684 198.96C331.831 198.96 359.408 172.445 366.016 123.675H324.707V120.007H366.469V120.005ZM321.302 22.7903H329.679V31.1676H321.302V22.7903ZM317.836 127.274V146.788H287.102V138.504C286.959 138.506 286.83 138.527 286.686 138.527C271.231 138.527 268.3 124.758 268.3 99.3512C268.3 76.7795 270.673 63.4866 282.223 60.9225V53.6086H319.3V79.4646H303.716C304.395 84.0386 304.688 89.442 304.771 95.5636H326.129V102.881H304.781C304.656 113.177 303.923 121.353 301.88 127.274H317.836Z" fill="#EFBA0D"/>
<path d="M528.463 18.8877H499.801V21.5709H528.463V18.8877Z" fill="#EFBA0D"/>
<path d="M528.463 7.01758H499.801V14.0094H528.463V7.01758Z" fill="#EFBA0D"/>
<path d="M528.459 115.655V79.5352H521.145V65.8754H528.459V48.151H522.284V34.4912H528.459V24.0084H499.797V60.9248H474.916V39.9473H473.941V27.6672H469.433V14.0075H473.941V7.01562H461.893L454.425 17.6663H467.431V20.1056H452.714L450.832 22.7887H463.528V27.6672H447.412L437.774 41.4109H471.012V54.5828H428.538L416.222 72.1453H444.668V116.539H385.094L383.035 119.474V120.003H456.365V123.672H383.035V132.554H510.381V134.994H383.035V145.322H432.472V163.373H383.035V171.409H464.385V184.35H492.477V189.717H464.385V199.999H528.457V171.411H547.171V115.655H528.459ZM491.991 122.396H462.72V115.655H449.338L462.72 95.2088V80.4406H491.991V122.396ZM514.604 64.5758H506.162V56.1341H514.604V64.5758Z" fill="#EFBA0D"/>
<path d="M19.3586 108.825H0.867188V122.485H19.3586V108.825Z" fill="#EFBA0D"/>
<path d="M190.816 42.3828H177.156V56.0426H190.816V42.3828Z" fill="#EFBA0D"/>
<path d="M202.887 50.2017H194.445V58.6434H202.887V50.2017Z" fill="#EFBA0D"/>
<path d="M383.205 75.5679H378.723V89.2276H383.205V75.5679Z" fill="#EFBA0D"/>
<path d="M550.179 27.6606H536.52V41.3204H550.179V27.6606Z" fill="#EFBA0D"/>
<path d="M562.254 35.4805H553.812V43.9222H562.254V35.4805Z" fill="#EFBA0D"/>
<path d="M404.071 62.8726H395.629V71.3143H404.071V62.8726Z" fill="#EFBA0D"/>
<path d="M363.827 22.7905H355.449V31.1679H363.827V22.7905Z" fill="#EFBA0D"/>
</g>
<g opacity="0.3667">
<path d="M192.579 149.715V115.655H173.865V94.2565H162.223V80.5967H173.865V62.8723H163.363V49.2125H173.865V38.7296H134.244V36.2904H173.865V33.6072H131.643V47.5987H131.961V56.0404H123.519V49.8682H112.129V42.3885H110.511V28.7287H112.129V19.6216H131.643V28.7287H173.865V7.01758H107.299L89.5102 32.3876H108.511V34.8268H87.8008L85.9197 37.51H104.61V42.3885H82.5008L63.8592 68.9762H97.3353V79.9528H56.1629L28.4492 119.476V134.724H97.4504V138.393H28.4492V147.276H151.465V149.715H28.4492V158.008H48.0626V166.302H28.4492V171.411H109.797V178.498H154.414V192.646H109.797V200H173.869V171.413H192.583V159.226H179.231V149.717H192.579V149.715ZM47.2372 128.568H38.7955V120.126H47.2372V128.568ZM67.8966 122.485H54.2369V108.826H67.8966V122.485ZM134.406 119.225H110.745V115.655H94.7419L110.745 91.2065V79.221H134.406V119.225ZM155.682 79.2952H147.24V70.8535H155.682V79.2952Z" fill="#EFBA0D"/>
<path d="M366.9 120.005C367.628 113.489 368.014 106.614 368.014 99.3512C368.014 79.9251 365.357 63.1646 360.223 49.2122H300.112V39.703H356.144C343.136 13.7632 319.7 0 287.12 0C267.935 0 251.934 4.78872 239.351 14.009H317.025V18.8875H233.462C229.879 22.2225 226.656 26.0082 223.76 30.1919H242.22V42.3881H216.832C209.844 57.568 206.223 76.6429 206.223 99.3512C206.223 103.476 206.369 107.453 206.605 111.339H226.609V139.96H211.007C211.905 143.343 212.906 146.61 214.05 149.717H270.09V159.226H218.132C219.461 161.876 220.901 164.397 222.445 166.791H307.916V171.67H225.902C239.613 189.55 260.247 198.96 287.118 198.96C332.265 198.96 359.842 172.445 366.449 123.675H325.14V120.007H366.9V120.005ZM321.735 22.7903H330.113V31.1676H321.735V22.7903ZM317.834 127.274V146.788H287.1V138.525C271.661 138.514 268.732 124.749 268.732 99.3493C268.732 77.0527 271.034 63.7969 282.222 61.0044V53.6067H319.298V79.4626H304.147C304.826 84.0367 305.119 89.4401 305.203 95.5616H326.128V102.879H305.213C305.088 113.175 304.354 121.351 302.311 127.272H317.834V127.274Z" fill="#EFBA0D"/>
<path d="M528.896 18.8877H499.801V21.5709H528.896V18.8877Z" fill="#EFBA0D"/>
<path d="M528.896 7.01758H499.801V14.0094H528.896V7.01758Z" fill="#EFBA0D"/>
<path d="M528.896 115.655V79.5352H521.582V65.8754H528.896V48.151H522.722V34.4912H528.896V24.0084H499.801V60.9248H474.921V39.9473H473.945V27.6672H469.871V14.0075H473.945V7.01562H462.33L454.862 17.6663H467.868V20.1056H453.151L451.27 22.7887H463.966V27.6672H447.849L438.211 41.4109H471.016V54.5828H428.975L416.66 72.1453H444.672V116.539H385.531L383.473 119.474V120.003H456.802V123.672H383.473V132.554H510.819V134.994H383.473V145.322H432.476V163.373H383.473V171.409H464.822V184.35H492.481V189.717H464.822V199.999H528.894V171.411H547.608V115.655H528.896ZM491.995 122.396H462.725V115.655H449.775L462.725 95.8703V80.4406H491.995V122.396ZM515.043 64.5758H506.602V56.1341H515.043V64.5758Z" fill="#EFBA0D"/>
<path d="M19.7961 108.825H1.30469V122.485H19.7961V108.825Z" fill="#EFBA0D"/>
<path d="M191.253 42.3828H177.594V56.0426H191.253V42.3828Z" fill="#EFBA0D"/>
<path d="M203.321 50.2017H194.879V58.6434H203.321V50.2017Z" fill="#EFBA0D"/>
<path d="M383.205 75.5679H379.156V89.2276H383.205V75.5679Z" fill="#EFBA0D"/>
<path d="M550.613 27.6606H536.953V41.3204H550.613V27.6606Z" fill="#EFBA0D"/>
<path d="M562.692 35.4805H554.25V43.9222H562.692V35.4805Z" fill="#EFBA0D"/>
<path d="M404.504 62.8726H396.062V71.3143H404.504V62.8726Z" fill="#EFBA0D"/>
<path d="M364.264 22.7905H355.887V31.1679H364.264V22.7905Z" fill="#EFBA0D"/>
</g>
<g opacity="0.4722">
<path d="M193.008 149.715V115.655H174.295V94.2565H162.655V80.5967H174.295V62.8723H163.792V49.2125H174.295V38.7296H134.674V36.2904H174.295V33.6072H131.639V47.5987H132.39V56.0404H123.949V49.8682H112.125V42.3885H110.943V28.7287H112.125V19.6216H131.639V28.7287H174.295V7.01758H107.729L89.9399 32.3876H108.941V34.8268H88.2285L86.3474 37.51H105.038V42.3885H82.9266L64.2849 68.9762H97.3279V79.9528H56.5887L28.875 119.476V134.724H97.8762V138.393H28.875V147.276H151.891V149.715H28.875V158.008H48.0533V166.302H28.875V171.411H110.223V178.498H154.404V192.646H110.223V200H174.295V171.413H193.008V159.226H179.657V149.717H193.008V149.715ZM47.6669 128.568H39.2252V120.126H47.6669V128.568ZM68.3263 122.485H54.6665V108.826H68.3263V122.485ZM134.402 119.225H110.742V115.655H95.1735L110.742 91.8699V79.223H134.402V119.225ZM156.112 79.2952H147.67V70.8535H156.112V79.2952Z" fill="#EFBA0D"/>
<path d="M367.334 120.005C368.062 113.489 368.448 106.614 368.448 99.3512C368.448 79.9251 365.79 63.1646 360.654 49.2122H300.544V39.703H356.576C343.568 13.7632 320.132 0 287.551 0C268.367 0 252.366 4.78872 239.783 14.009H317.456V18.8875H233.894C230.313 22.2225 227.087 26.0082 224.191 30.1919H242.218V42.3881H217.266C210.278 57.568 206.656 76.6429 206.656 99.3512C206.656 103.476 206.803 107.453 207.039 111.339H226.609V139.96H211.443C212.341 143.343 213.342 146.61 214.485 149.717H270.525V159.226H218.568C219.896 161.876 221.337 164.397 222.88 166.791H308.351V171.67H226.338C240.048 189.55 260.682 198.96 287.553 198.96C332.701 198.96 360.278 172.445 366.885 123.675H325.576V120.007H367.334V120.005ZM322.169 22.7903H330.546V31.1676H322.169V22.7903ZM317.835 127.274V146.788H287.1V138.5C272.055 138.221 269.165 124.497 269.165 99.3493C269.165 77.3376 271.4 64.1266 282.222 61.1059V53.6086H319.298V79.4646H304.581C305.26 84.0386 305.553 89.442 305.637 95.5636H326.128V102.881H305.648C305.522 113.177 304.79 121.353 302.747 127.274H317.835Z" fill="#EFBA0D"/>
<path d="M529.336 115.655V79.5352H522.022V65.8754H529.336V48.151H523.161V34.4912H529.336V24.0084H499.807V60.9248H474.927V39.9473H473.951V27.6672H470.31V14.0075H473.951V7.01562H462.772L455.304 17.6663H468.31V20.1056H453.592L451.711 22.7887H464.407V27.6672H448.291L438.653 41.4109H471.024V54.5828H429.417L417.101 72.1453H444.68V116.539H385.973L383.914 119.474V120.003H457.243V123.672H383.914V132.554H511.26V134.994H383.914V145.322H432.482V163.373H383.914V171.409H465.264V184.35H492.49V189.717H465.264V199.999H529.336V171.411H548.05V115.655H529.336ZM492.002 122.396H462.731V115.655H450.215L462.731 96.5338V80.4406H492.002V122.396ZM515.483 64.5758H507.041V56.1341H515.483V64.5758Z" fill="#EFBA0D"/>
<path d="M529.329 18.8877H499.801V21.5709H529.329V18.8877Z" fill="#EFBA0D"/>
<path d="M529.329 7.01758H499.801V14.0094H529.329V7.01758Z" fill="#EFBA0D"/>
<path d="M20.2297 108.825H1.73828V122.485H20.2297V108.825Z" fill="#EFBA0D"/>
<path d="M191.687 42.3828H178.027V56.0426H191.687V42.3828Z" fill="#EFBA0D"/>
<path d="M203.762 50.2017H195.32V58.6434H203.762V50.2017Z" fill="#EFBA0D"/>
<path d="M383.206 75.5679H379.59V89.2276H383.206V75.5679Z" fill="#EFBA0D"/>
<path d="M551.046 27.6606H537.387V41.3204H551.046V27.6606Z" fill="#EFBA0D"/>
<path d="M563.125 35.4805H554.684V43.9222H563.125V35.4805Z" fill="#EFBA0D"/>
<path d="M404.942 62.8726H396.5V71.3143H404.942V62.8726Z" fill="#EFBA0D"/>
<path d="M364.698 22.7905H356.32V31.1679H364.698V22.7905Z" fill="#EFBA0D"/>
</g>
<g opacity="0.5778">
<path d="M193.44 149.715V115.655H174.726V94.2565H163.084V80.5967H174.726V62.8723H164.224V49.2125H174.726V38.7296H135.105V36.2904H174.726V33.6072H131.638V47.5987H132.824V56.0404H124.382V49.8682H112.126V42.3885H111.376V28.7287H112.126V19.6216H131.64V28.7287H174.728V7.01758H108.162L90.3735 32.3876H109.374V34.8268H88.6641L86.7829 37.51H105.473V42.3885H83.3622L64.7205 68.9762H97.3283V79.9528H57.0223L29.3086 119.476V134.724H98.3098V138.393H29.3086V147.276H152.324V149.715H29.3086V158.008H48.0537V166.302H29.3086V171.411H110.656V178.498H154.405V192.646H110.656V200H174.728V171.413H193.442V159.226H180.091V149.717H193.44V149.715ZM48.1005 128.568H39.6588V120.126H48.1005V128.568ZM68.7599 122.485H55.1001V108.826H68.7599V122.485ZM134.401 119.225H110.74V115.655H95.6052L110.74 92.5315V79.221H134.401V119.225ZM156.545 79.2952H148.103V70.8535H156.545V79.2952Z" fill="#EFBA0D"/>
<path d="M367.765 120.005C368.493 113.489 368.88 106.614 368.88 99.3512C368.88 79.9251 366.222 63.1646 361.088 49.2122H300.977V39.703H357.009C344.001 13.7632 320.565 0 287.985 0C268.801 0 252.799 4.78872 240.217 14.009H317.89V18.8875H234.327C230.747 22.2225 227.521 26.0082 224.625 30.1919H242.219V42.3881H217.7C210.712 57.568 207.09 76.6429 207.09 99.3512C207.09 103.476 207.236 107.453 207.472 111.339H226.61V139.96H211.877C212.774 143.343 213.775 146.61 214.919 149.717H270.959V159.226H219.001C220.33 161.876 221.77 164.397 223.314 166.791H308.785V171.67H226.772C240.482 189.55 261.116 198.96 287.987 198.96C333.134 198.96 360.711 172.445 367.319 123.675H326.01V120.007H367.765V120.005ZM322.599 22.7903H330.976V31.1676H322.599V22.7903ZM317.831 127.274V146.788H287.097V138.475C272.44 137.934 269.597 124.247 269.597 99.3493C269.597 77.6478 271.786 64.5228 282.218 61.2601V53.6067H319.295V79.4626H305.013C305.692 84.0367 305.984 89.4401 306.068 95.5616H326.127V102.879H306.08C305.955 113.175 305.221 121.351 303.178 127.272H317.831V127.274Z" fill="#EFBA0D"/>
<path d="M529.762 18.8877H499.801V21.5709H529.762V18.8877Z" fill="#EFBA0D"/>
<path d="M529.761 115.655V79.5352H522.448V65.8754H529.761V48.151H523.587V34.4912H529.761V24.0084H499.8V60.9248H474.92V39.9473H473.944V27.6672H470.738V14.0075H473.944V7.01562H463.198L455.73 17.6663H468.736V20.1056H454.018L452.137 22.7887H464.833V27.6672H448.716L439.078 41.4109H471.017V54.5828H429.842L417.527 72.1453H444.673V116.539H386.399L384.34 119.474V120.003H457.669V123.672H384.34V132.554H511.686V134.994H384.34V145.322H432.475V163.373H384.34V171.409H465.689V184.35H492.482V189.717H465.689V199.999H529.761V171.411H548.475V115.655H529.761ZM491.992 122.396H462.721V115.655H450.638L462.721 97.1953V80.4406H491.992V122.396ZM515.907 64.5758H507.465V56.1341H515.907V64.5758Z" fill="#EFBA0D"/>
<path d="M529.762 7.01758H499.801V14.0094H529.762V7.01758Z" fill="#EFBA0D"/>
<path d="M20.6555 108.825H2.16406V122.485H20.6555V108.825Z" fill="#EFBA0D"/>
<path d="M192.113 42.3828H178.453V56.0426H192.113V42.3828Z" fill="#EFBA0D"/>
<path d="M204.192 50.2017H195.75V58.6434H204.192V50.2017Z" fill="#EFBA0D"/>
<path d="M383.202 75.5679H380.02V89.2276H383.202V75.5679Z" fill="#EFBA0D"/>
<path d="M551.472 27.6606H537.812V41.3204H551.472V27.6606Z" fill="#EFBA0D"/>
<path d="M563.551 35.4805H555.109V43.9222H563.551V35.4805Z" fill="#EFBA0D"/>
<path d="M405.368 62.8726H396.926V71.3143H405.368V62.8726Z" fill="#EFBA0D"/>
<path d="M365.123 22.7905H356.746V31.1679H365.123V22.7905Z" fill="#EFBA0D"/>
</g>
<g opacity="0.6833">
<path d="M193.876 149.715V115.655H175.162V94.2565H163.522V80.5967H175.162V62.8723H164.659V49.2125H175.162V38.7296H135.541V36.2904H175.162V33.6072H131.638V47.5987H133.258V56.0404H124.816V49.8682H112.126V42.3885H111.81V28.7287H112.126V19.6216H131.64V28.7287H175.164V7.01758H108.598L90.809 32.3876H109.81V34.8268H89.0996L87.2185 37.51H105.909V42.3885H83.7977L65.156 68.9762H97.3306V79.9528H57.4558L29.7422 119.476V134.724H98.7434V138.393H29.7422V147.276H152.758V149.715H29.7422V158.008H48.054V166.302H29.7422V171.411H111.09V178.498H154.405V192.646H111.09V200H175.162V171.413H193.876V159.226H180.524V149.717H193.876V149.715ZM48.536 128.568H40.0943V120.126H48.536V128.568ZM69.1954 122.485H55.5357V108.826H69.1954V122.485ZM134.403 119.225H110.743V115.655H96.0407L110.743 93.1949V79.221H134.403V119.225ZM156.981 79.2952H148.539V70.8535H156.981V79.2952Z" fill="#EFBA0D"/>
<path d="M368.207 120.005C368.935 113.489 369.321 106.614 369.321 99.3512C369.321 79.9251 366.663 63.1646 361.527 49.2122H301.417V39.703H357.449C344.441 13.7632 321.005 0 288.424 0C269.24 0 253.237 4.78872 240.656 14.009H318.329V18.8875H234.767C231.186 22.2225 227.96 26.0082 225.065 30.1919H242.223V42.3881H218.137C211.149 57.568 207.527 76.6429 207.527 99.3512C207.527 103.476 207.674 107.453 207.91 111.339H226.614V139.96H212.314C213.212 143.343 214.213 146.61 215.356 149.717H271.396V159.226H219.439C220.768 161.876 222.208 164.397 223.751 166.791H309.222V171.67H227.209C240.92 189.55 261.554 198.96 288.424 198.96C333.574 198.96 361.149 172.445 367.756 123.675H326.447V120.007H368.207V120.005ZM323.04 22.7903H331.417V31.1676H323.04V22.7903ZM326.133 102.881H306.52C306.393 113.177 305.661 121.353 303.618 127.274H317.84V146.788H287.105V138.449C272.831 137.651 270.038 123.997 270.038 99.3493C270.038 77.9562 272.175 64.9092 282.227 61.4162V53.6067H319.303V79.4626H305.454C306.133 84.0367 306.426 89.4401 306.51 95.5616H326.133V102.881Z" fill="#EFBA0D"/>
<path d="M530.196 18.8877H499.801V21.5709H530.196V18.8877Z" fill="#EFBA0D"/>
<path d="M530.197 115.655V79.5352H522.883V65.8754H530.197V48.151H524.023V34.4912H530.197V24.0084H499.802V60.9248H474.922V39.9473H473.946V27.6672H471.173V14.0075H473.946V7.01562H463.633L456.165 17.6663H469.171V20.1056H454.454L452.573 22.7887H465.268V27.6672H449.152L439.514 41.4109H471.019V54.5828H430.278L417.963 72.1453H444.673V116.539H386.832L384.773 119.474V120.003H458.103V123.672H384.773V132.554H512.119V134.994H384.773V145.322H432.475V163.373H384.773V171.409H466.123V184.35H492.482V189.717H466.123V199.999H530.195V171.411H548.909V115.655H530.197ZM491.995 122.396H462.724V115.655H451.076L462.724 97.8587V80.4406H491.995V122.396ZM516.342 64.5758H507.9V56.1341H516.342V64.5758Z" fill="#EFBA0D"/>
<path d="M530.196 7.01758H499.801V14.0094H530.196V7.01758Z" fill="#EFBA0D"/>
<path d="M21.0969 108.825H2.60547V122.485H21.0969V108.825Z" fill="#EFBA0D"/>
<path d="M192.554 42.3828H178.895V56.0426H192.554V42.3828Z" fill="#EFBA0D"/>
<path d="M204.625 50.2017H196.184V58.6434H204.625V50.2017Z" fill="#EFBA0D"/>
<path d="M383.211 75.5679H380.461V89.2276H383.211V75.5679Z" fill="#EFBA0D"/>
<path d="M551.918 27.6606H538.258V41.3204H551.918V27.6606Z" fill="#EFBA0D"/>
<path d="M563.992 35.4805H555.551V43.9222H563.992V35.4805Z" fill="#EFBA0D"/>
<path d="M405.809 62.8726H397.367V71.3143H405.809V62.8726Z" fill="#EFBA0D"/>
<path d="M365.565 22.7905H357.188V31.1679H365.565V22.7905Z" fill="#EFBA0D"/>
</g>
<g opacity="0.7889">
<path d="M194.303 149.715V115.655H175.59V94.2565H163.948V80.5967H175.59V62.8723H165.087V49.2125H175.59V38.7296H135.969V36.2904H175.59V33.6072H131.633V47.5987H133.685V56.0404H125.244V49.8682H112.119V19.6216H131.633V28.7287H175.59V7.01758H109.026L91.2368 32.3876H110.237V34.8268H89.5274L87.6462 37.51H106.335V42.3885H84.2235L65.5818 68.9762H97.3232V79.9528H57.8855L30.1719 119.476V134.724H99.1731V138.393H30.1719V147.276H153.188V149.715H30.1719V158.008H48.0505V166.302H30.1719V171.411H111.52V178.498H154.401V192.646H111.52V200H175.592V171.413H194.305V159.226H180.954V149.717H194.303V149.715ZM48.9638 128.568H40.5221V120.126H48.9638V128.568ZM69.6232 122.485H55.9634V108.826H69.6232V122.485ZM134.398 119.225H110.737V115.655H96.4684L110.737 93.8564V79.221H134.398V119.225ZM157.408 79.2952H148.967V70.8535H157.408V79.2952Z" fill="#EFBA0D"/>
<path d="M368.631 120.005C369.359 113.489 369.745 106.614 369.745 99.3512C369.745 79.9251 367.087 63.1646 361.953 49.2122H301.842V39.703H357.875C344.867 13.7632 321.43 0 288.85 0C269.666 0 253.663 4.78872 241.082 14.009H318.755V18.8875H235.193C231.61 22.2225 228.386 26.0082 225.49 30.1919H242.216V42.3881H218.563C211.575 57.568 207.953 76.6429 207.953 99.3512C207.953 103.476 208.099 107.453 208.336 111.339H226.605V139.96H212.738C213.636 143.343 214.637 146.61 215.78 149.717H271.82V159.226H219.864C221.193 161.876 222.633 164.397 224.177 166.791H309.648V171.67H227.633C241.343 189.55 261.977 198.96 288.848 198.96C333.997 198.96 361.573 172.445 368.18 123.675H326.871V120.007H368.631V120.005ZM323.464 22.7903H331.841V31.1676H323.464V22.7903ZM326.124 102.881H306.943C306.816 113.177 306.085 121.353 304.042 127.274H317.83V146.788H287.096V138.424C273.196 137.376 270.462 123.748 270.462 99.3493C270.462 78.2664 272.536 65.2877 282.217 61.5723V53.6086H319.294V79.4646H305.878C306.557 84.0386 306.85 89.442 306.934 95.5636H326.124V102.881Z" fill="#EFBA0D"/>
<path d="M530.631 18.8877H499.801V21.5709H530.631V18.8877Z" fill="#EFBA0D"/>
<path d="M530.627 115.655V79.5352H523.313V65.8754H530.627V48.151H524.452V34.4912H530.627V24.0084H499.797V60.9248H474.916V39.9473H473.941V27.6672H471.601V14.0075H473.941V7.01562H464.061L456.593 17.6663H469.599V20.1056H454.881L453 22.7887H465.696V27.6672H449.58L439.942 41.4109H471.012V54.5828H430.706L418.39 72.1453H444.668V116.539H387.262L385.203 119.474V120.003H458.533V123.672H385.207V132.554H512.553V134.994H385.207V145.322H432.476V163.373H385.207V171.409H466.557V184.35H492.481V189.717H466.557V199.999H530.629V171.411H549.342V115.655H530.627ZM491.991 122.396H462.72V115.655H451.506L462.72 98.5203V80.4406H491.991V122.396ZM516.772 64.5758H508.33V56.1341H516.772V64.5758Z" fill="#EFBA0D"/>
<path d="M530.631 7.01758H499.801V14.0094H530.631V7.01758Z" fill="#EFBA0D"/>
<path d="M21.5246 108.825H3.03516V122.485H21.5246V108.825Z" fill="#EFBA0D"/>
<path d="M192.98 42.3828H179.32V56.0426H192.98V42.3828Z" fill="#EFBA0D"/>
<path d="M205.051 50.2017H196.609V58.6434H205.051V50.2017Z" fill="#EFBA0D"/>
<path d="M383.201 75.5679H380.887V89.2276H383.201V75.5679Z" fill="#EFBA0D"/>
<path d="M552.343 27.6606H538.684V41.3204H552.343V27.6606Z" fill="#EFBA0D"/>
<path d="M564.422 35.4805H555.98V43.9222H564.422V35.4805Z" fill="#EFBA0D"/>
<path d="M406.235 62.8726H397.793V71.3143H406.235V62.8726Z" fill="#EFBA0D"/>
<path d="M365.995 22.7905H357.617V31.1679H365.995V22.7905Z" fill="#EFBA0D"/>
</g>
<g opacity="0.8944">
<path d="M194.745 149.715V115.655H176.031V94.2565H164.389V80.5967H176.031V62.8723H165.529V49.2125H176.031V38.7296H136.41V36.2904H176.031V33.6072H131.641V47.5987H134.127V56.0404H125.685V49.8682H112.127V19.6216H131.641V28.7287H176.031V7.01758H109.465L91.6762 32.3876H110.677V34.8268H89.9668L88.0857 37.51H106.776V42.3885H84.6668L66.0232 68.9762H97.3314V79.9528H58.3269L30.6133 119.476V134.724H99.6145V138.393H30.6133V147.276H153.629V149.715H30.6133V158.008H48.0568V166.302H30.6133V171.411H111.961V178.498H154.41V192.646H111.959V200H176.031V171.413H194.745V159.226H181.393V149.717H194.745V149.715ZM49.4032 128.568H40.9615V120.126H49.4032V128.568ZM70.0626 122.485H56.4029V108.826H70.0626V122.485ZM134.404 119.225H110.743V115.655H96.9099L110.743 94.5199V79.221H134.404V119.225ZM157.848 79.2952H149.406V70.8535H157.848V79.2952Z" fill="#EFBA0D"/>
<path d="M369.066 120.005C369.794 113.489 370.18 106.614 370.18 99.3512C370.18 79.9251 367.523 63.1646 362.389 49.2122H302.276V39.703H358.308C345.3 13.7632 321.864 0 289.284 0C270.099 0 254.098 4.78872 241.515 14.009H319.189V18.8875H235.626C232.045 22.2225 228.82 26.0082 225.924 30.1919H242.216V42.3881H218.996C212.008 57.568 208.387 76.6429 208.387 99.3512C208.387 103.476 208.533 107.453 208.769 111.339H226.605V139.96H213.172C214.069 143.343 215.07 146.61 216.214 149.717H272.254V159.226H220.298C221.627 161.876 223.067 164.397 224.611 166.791H310.082V171.67H228.068C241.779 189.55 262.413 198.96 289.284 198.96C334.431 198.96 362.008 172.445 368.615 123.675H327.306V120.007H369.066V120.005ZM323.901 22.7903H332.279V31.1676H323.901V22.7903ZM326.126 102.881H307.379C307.252 113.177 306.52 121.353 304.477 127.274H317.832V146.788H287.098V138.399C273.567 137.105 270.898 123.498 270.898 99.3493C270.898 78.5767 272.9 65.6565 282.22 61.7264V53.6067H319.296V79.4626H306.313C306.992 84.0367 307.285 89.4401 307.369 95.5616H326.126V102.881Z" fill="#EFBA0D"/>
<path d="M531.064 18.8877H499.801V21.5709H531.064V18.8877Z" fill="#EFBA0D"/>
<path d="M531.064 7.01758H499.801V14.0094H531.064V7.01758Z" fill="#EFBA0D"/>
<path d="M531.066 115.655V79.5352H523.752V65.8754H531.066V48.151H524.892V34.4912H531.066V24.0084H499.803V60.9248H474.923V39.9473H473.947V27.6672H472.04V14.0075H473.947V7.01562H464.502L457.034 17.6663H470.04V20.1056H455.323L453.442 22.7887H466.137V27.6672H450.021L440.383 41.4109H471.02V54.5828H431.147L418.832 72.1453H444.676V116.539H387.703L385.645 119.474V120.003H458.974V123.672H385.645V132.554H512.99V134.994H385.645V145.322H432.48V163.373H385.645V171.409H466.994V184.35H492.485V189.717H466.994V199.999H531.066V171.411H549.78V115.655H531.066ZM491.997 122.396H462.726V115.655H451.945L462.726 99.1838V80.4406H491.997V122.396ZM517.213 64.5758H508.772V56.1341H517.213V64.5758Z" fill="#EFBA0D"/>
<path d="M21.9601 108.825H3.46875V122.485H21.9601V108.825Z" fill="#EFBA0D"/>
<path d="M193.418 42.3828H179.758V56.0426H193.418V42.3828Z" fill="#EFBA0D"/>
<path d="M205.493 50.2017H197.051V58.6434H205.493V50.2017Z" fill="#EFBA0D"/>
<path d="M383.201 75.5679H381.32V89.2276H383.201V75.5679Z" fill="#EFBA0D"/>
<path d="M552.777 27.6606H539.117V41.3204H552.777V27.6606Z" fill="#EFBA0D"/>
<path d="M564.856 35.4805H556.414V43.9222H564.856V35.4805Z" fill="#EFBA0D"/>
<path d="M406.672 62.8726H398.23V71.3143H406.672V62.8726Z" fill="#EFBA0D"/>
<path d="M366.428 22.7905H358.051V31.1679H366.428V22.7905Z" fill="#EFBA0D"/>
</g>
<path d="M195.178 149.715V115.655H176.465V94.2565H164.823V80.5967H176.465V62.8723H165.962V49.2125H176.465V38.7296H136.844V36.2904H176.465V33.6072H131.641V47.5987H134.56V56.0404H126.119V49.8682H112.127V19.6216H131.641V28.7287H176.465V7.01758H109.899L92.1098 32.3876H111.111V34.8268H90.4004L88.5193 37.51H107.21V42.3885H85.0985L66.4568 68.9762H97.3318V79.9528H58.7605L31.0469 119.476V134.724H100.048V138.393H31.0469V147.276H154.063V149.715H31.0469V158.008H48.0571V166.302H31.0469V171.411H112.395V178.498H154.408V192.646H112.395V200H176.467V171.413H195.18V159.226H181.829V149.717H195.178V149.715ZM49.8368 128.568H41.3951V120.126H49.8368V128.568ZM70.4962 122.485H56.8365V108.826H70.4962V122.485ZM134.404 119.225H110.744V115.655H97.3435L110.744 95.1815V79.221H134.404V119.225ZM158.283 79.2952H149.842V70.8535H158.283V79.2952Z" fill="#EFBA0D"/>
<path d="M369.498 120.005C370.226 113.489 370.612 106.614 370.612 99.3512C370.612 79.9251 367.954 63.1646 362.818 49.2122H302.708V39.703H358.74C345.732 13.7632 322.296 0 289.715 0C270.531 0 254.53 4.78872 241.947 14.009H319.62V18.8875H236.058C232.477 22.2225 229.251 26.0082 226.356 30.1919H242.214V42.3881H219.43C212.442 57.568 208.82 76.6429 208.82 99.3512C208.82 103.476 208.967 107.453 209.203 111.339H226.605V139.96H213.607C214.505 143.343 215.506 146.61 216.649 149.717H272.689V159.226H220.732C222.061 161.876 223.501 164.397 225.044 166.791H310.515V171.67H228.502C242.213 189.55 262.847 198.96 289.717 198.96C334.867 198.96 362.442 172.445 369.049 123.675H327.74V120.007H369.498V120.005ZM324.333 22.7903H332.71V31.1676H324.333V22.7903ZM326.124 102.881H307.812C307.686 113.177 306.954 121.353 304.911 127.274H317.833V146.788H287.098V138.373C273.93 136.841 271.331 123.248 271.331 99.3493C271.331 78.8909 273.259 66.0351 282.22 61.8962V53.6086H319.296V79.4646H306.749C307.426 84.0386 307.721 89.442 307.805 95.5636H326.128V102.881H326.124Z" fill="#EFBA0D"/>
<path d="M531.497 18.8877H499.801V21.5709H531.497V18.8877Z" fill="#EFBA0D"/>
<path d="M531.5 115.655V79.5352H524.186V65.8754H531.5V48.151H525.326V34.4912H531.5V24.0084H499.803V60.9248H474.923V39.9473H473.947V27.6672H472.474V14.0075H473.947V7.01562H464.936L457.468 17.6663H470.474V20.1056H455.756L453.875 22.7887H466.571V27.6672H450.455L440.817 41.4109H471.02V54.5828H431.581L419.265 72.1453H444.677V116.539H388.137L386.078 119.474V120.003H459.408V123.672H386.078V132.554H513.424V134.994H386.078V145.322H432.478V163.373H386.078V171.409H467.428V184.35H492.486V189.717H467.428V199.999H531.5V171.411H550.214V115.655H531.5ZM491.996 122.396H462.725V115.655H452.377L462.725 99.8453V80.4406H491.996V122.396ZM517.645 64.5758H509.203V56.1341H517.645V64.5758Z" fill="#EFBA0D"/>
<path d="M531.497 7.01758H499.801V14.0094H531.497V7.01758Z" fill="#EFBA0D"/>
<path d="M22.3937 108.825H3.90234V122.485H22.3937V108.825Z" fill="#EFBA0D"/>
<path d="M193.851 42.3828H180.191V56.0426H193.851V42.3828Z" fill="#EFBA0D"/>
<path d="M205.93 50.2017H197.488V58.6434H205.93V50.2017Z" fill="#EFBA0D"/>
<path d="M383.206 75.5679H381.758V89.2276H383.206V75.5679Z" fill="#EFBA0D"/>
<path d="M553.211 27.6606H539.551V41.3204H553.211V27.6606Z" fill="#EFBA0D"/>
<path d="M565.289 35.4805H556.848V43.9222H565.289V35.4805Z" fill="#EFBA0D"/>
<path d="M407.106 62.8726H398.664V71.3143H407.106V62.8726Z" fill="#EFBA0D"/>
<path d="M366.862 22.7905H358.484V31.1679H366.862V22.7905Z" fill="#EFBA0D"/>
<g opacity="0.05">
<path d="M188.172 94.2565H176.53V80.5968H188.172V62.8723H177.669V49.2125H188.172V38.7296H148.551V36.2904H188.172V33.6072H142.047V28.7288H188.172V9.21484H120.064L103.817 32.3876H122.818V34.8269H102.107L100.226 37.51H118.917V42.3885H96.8055L42.7539 119.476V134.724H111.755V138.393H42.7539V147.276H165.77V149.715H42.7539V167.765H121.233V171.411H124.102V198.5H188.174V171.411H206.887V159.224H193.536V149.715H206.887V115.655H188.174L188.172 94.2565ZM61.5458 128.568H53.1041V120.126H61.5458V128.568ZM82.2033 122.485H68.5435V108.826H82.2033V122.485ZM124.818 28.7288H138.477V42.3885H124.818V28.7288ZM128.779 115.655H109.05L128.777 85.5162V115.655H128.779ZM146.267 56.0424H144.16V59.951H120.743V44.3399H144.16V47.5987H146.267V56.0424ZM169.991 79.2952H165.139V83.3677H147.089V69.2201H165.139V70.8535H169.991V79.2952Z" fill="#3D27FF"/>
<path d="M381.211 120.005C381.939 113.489 382.325 106.614 382.325 99.3512C382.325 79.9251 379.667 63.1646 374.531 49.2122H314.421V39.703H370.453C357.445 13.7632 334.009 0 301.428 0C282.244 0 266.243 4.78872 253.66 14.009H331.333V18.8875H247.771C229.953 35.4802 220.531 62.6943 220.531 99.3512C220.531 118.871 223.201 135.71 228.358 149.717H284.398V159.226H281.247V161.913H233.879C234.798 163.587 235.744 165.226 236.753 166.791H322.224V171.67H240.211C253.921 189.55 274.556 198.96 301.426 198.96C346.576 198.96 374.151 172.445 380.758 123.675H339.453V120.007H381.211V120.005ZM336.046 22.7903H344.423V31.1676H336.046V22.7903ZM301.43 138.527C285.975 138.527 283.044 124.758 283.044 99.3512C283.044 74.1119 285.973 60.4346 301.43 60.4346C316.665 60.4346 319.555 74.1119 319.555 99.3512C319.553 124.758 316.665 138.527 301.43 138.527Z" fill="#3D27FF"/>
<path d="M481.195 127.518C473.171 125.795 465.005 124.294 456.875 123.673H397.785V127.518H481.195Z" fill="#3D27FF"/>
<path d="M543.207 115.655V79.535H535.893V65.8753H543.207V48.1508H537.033V34.491H543.207V24.0082H507.914V21.5689H543.207V18.8858H501.41V14.0073H543.207V7.91309H476.013L469.173 17.6661H482.179V20.1054H467.462L465.58 22.7885H478.276V27.667H462.16L397.785 119.474V120.003H471.115V122.612C477.125 123.672 483.098 124.981 489.001 126.263C490.818 126.657 492.629 127.077 494.436 127.516H508.216L496.569 115.868C495.234 114.533 497.304 112.463 498.639 113.798L512.359 127.518H521.997V132.556H525.129V134.996H521.997V137.156L523.521 138.68C523.89 139.049 523.982 139.47 523.919 139.862C524.382 140.079 524.84 140.301 525.314 140.498C527.032 141.215 526.275 144.046 524.536 143.322C523.666 142.959 522.826 142.555 521.999 142.134V145.326H397.787V165.816H477.849V171.412H479.135V194.111H543.207V171.412H561.921V115.657H543.207V115.655ZM420.907 113.848H412.465V105.407H420.907V113.848ZM441.567 107.766H427.907V94.106H441.567V107.766ZM483.812 115.655H464.086L483.812 85.516V115.655ZM484.181 27.669V14.0092H497.841V27.669H484.181ZM505.631 41.3209H497.189V32.8792H505.631V41.3209ZM529.352 64.5756H523.219V70.6835H507.608V49.2182H523.219V56.132H529.352V64.5756Z" fill="#3D27FF"/>
<path d="M34.1008 108.825H15.6094V122.485H34.1008V108.825Z" fill="#3D27FF"/>
<path d="M205.558 42.3828H191.898V56.0426H205.558V42.3828Z" fill="#3D27FF"/>
<path d="M217.637 50.2017H209.195V58.6434H217.637V50.2017Z" fill="#3D27FF"/>
<path d="M411.956 75.5679H393.465V89.2276H411.956V75.5679Z" fill="#3D27FF"/>
<path d="M564.921 27.6606H551.262V41.3204H564.921V27.6606Z" fill="#3D27FF"/>
<path d="M576.996 35.4805H568.555V43.9222H576.996V35.4805Z" fill="#3D27FF"/>
<path d="M418.813 62.8726H410.371V71.3143H418.813V62.8726Z" fill="#3D27FF"/>
<path d="M378.569 22.7905H370.191V31.1679H378.569V22.7905Z" fill="#3D27FF"/>
</g>
<g opacity="0.1556">
<path d="M187.299 94.2565H175.657V80.5968H187.299V62.8723H176.796V49.2125H187.299V38.7296H147.678V36.2904H187.299V33.6072H141.174V28.7288H187.299V9.21484H119.191L102.942 32.3876H121.943V34.8269H101.232L99.3513 37.51H118.04V42.3885H95.9305L41.8789 119.476V134.724H110.88V138.393H41.8789V147.276H164.895V149.715H41.8789V167.765H121.226V171.411H123.227V198.5H187.299V171.411H206.012V159.224H192.661V149.715H206.012V115.655H187.299V94.2565ZM60.6708 128.568H52.2291V120.126H60.6708V128.568ZM81.3302 122.485H67.6705V108.826H81.3302V122.485ZM123.945 28.7288H137.604V42.3885H123.945V28.7288ZM127.904 115.655H108.177L127.904 85.5162V115.655ZM145.394 56.0424H144.155V59.951H120.739V44.3399H144.155V47.5987H145.394V56.0424ZM169.116 79.2952H165.131V83.3677H147.08V69.2201H165.131V70.8535H169.116V79.2952Z" fill="#3D27FF"/>
<path d="M380.338 120.005C381.066 113.489 381.452 106.614 381.452 99.3512C381.452 79.9251 378.794 63.1646 373.66 49.2122H313.549V39.703H369.582C356.574 13.7632 333.137 0 300.557 0C281.373 0 265.37 4.78872 252.789 14.009H330.462V18.8875H246.9C229.081 35.4802 219.66 62.6943 219.66 99.3512C219.66 118.871 222.33 135.71 227.487 149.717H283.527V159.226H281.242V161.913H233.008C233.927 163.587 234.873 165.226 235.882 166.791H321.353V171.67H239.34C253.05 189.55 273.684 198.96 300.555 198.96C345.704 198.96 373.28 172.445 379.887 123.675H338.578V120.007H380.338V120.005ZM335.171 22.7903H343.548V31.1676H335.171V22.7903ZM300.555 138.527C285.1 138.527 282.169 124.758 282.169 99.3512C282.169 74.1119 285.098 60.4346 300.555 60.4346C315.79 60.4346 318.68 74.1119 318.68 99.3512C318.68 124.758 315.79 138.527 300.555 138.527Z" fill="#3D27FF"/>
<path d="M481.195 127.518C473.171 125.795 465.004 124.294 456.874 123.673H396.918V127.518H481.195Z" fill="#3D27FF"/>
<path d="M542.34 115.655V79.535H535.026V65.8753H542.34V48.1508H536.165V34.491H542.34V24.0082H507.047V21.5689H542.34V18.8858H500.543V14.0073H542.34V7.91309H475.145L468.306 17.6661H481.312V20.1054H466.594L464.713 22.7885H477.409V27.667H461.292L396.918 119.474V120.003H470.247V122.454C476.55 123.537 482.812 124.92 489.002 126.263C490.819 126.657 492.63 127.077 494.437 127.516H508.218L496.57 115.868C495.235 114.533 497.305 112.463 498.64 113.798L512.36 127.518H521.998V132.556H524.264V134.996H521.998V137.156L523.522 138.68C523.891 139.049 523.983 139.47 523.92 139.862C524.383 140.079 524.841 140.301 525.316 140.498C527.033 141.215 526.276 144.046 524.537 143.322C523.667 142.959 522.828 142.555 522 142.134V145.326H396.92V165.816H477.85V171.412H478.27V194.111H542.342V171.412H561.055V115.657H542.34V115.655ZM420.042 113.848H411.6V105.407H420.042V113.848ZM440.699 107.766H427.04V94.106H440.699V107.766ZM482.947 115.655H463.22L482.947 85.516V115.655ZM483.314 27.669V14.0092H496.974V27.669H483.314ZM504.764 41.3209H496.322V32.8792H504.764V41.3209ZM528.485 64.5756H523.218V70.6835H507.607V49.2182H523.218V56.132H528.485V64.5756Z" fill="#3D27FF"/>
<path d="M33.2316 108.825H14.7422V122.485H33.2316V108.825Z" fill="#3D27FF"/>
<path d="M204.691 42.3828H191.031V56.0426H204.691V42.3828Z" fill="#3D27FF"/>
<path d="M216.762 50.2017H208.32V58.6434H216.762V50.2017Z" fill="#3D27FF"/>
<path d="M411.085 75.5679H392.594V89.2276H411.085V75.5679Z" fill="#3D27FF"/>
<path d="M564.05 27.6606H550.391V41.3204H564.05V27.6606Z" fill="#3D27FF"/>
<path d="M576.129 35.4805H567.688V43.9222H576.129V35.4805Z" fill="#3D27FF"/>
<path d="M417.946 62.8726H409.504V71.3143H417.946V62.8726Z" fill="#3D27FF"/>
<path d="M377.702 22.7905H369.324V31.1679H377.702V22.7905Z" fill="#3D27FF"/>
</g>
<g opacity="0.2611">
<path d="M186.433 94.2565H174.791V80.5968H186.433V62.8723H175.931V49.2125H186.433V38.7296H146.812V36.2904H186.433V33.6072H140.308V28.7288H186.433V9.21484H118.326L102.079 32.3876H121.079V34.8269H100.369L98.488 37.51H117.178V42.3885H95.0672L41.0156 119.476V134.724H110.017V138.393H41.0156V147.276H164.031V149.715H41.0156V167.765H121.23V171.411H122.363V198.5H186.435V171.411H205.149V159.224H191.798V149.715H205.149V115.655H186.435V94.2565H186.433ZM59.8075 128.568H51.3658V120.126H59.8075V128.568ZM80.4669 122.485H66.8072V108.826H80.4669V122.485ZM123.081 28.7288H136.741V42.3885H123.081V28.7288ZM127.041 115.655H107.314L127.041 85.5162V115.655ZM144.529 56.0424H144.156V59.951H120.74V44.3399H144.156V47.5987H144.529V56.0424ZM168.252 79.2952H165.136V83.3677H147.085V69.2201H165.136V70.8535H168.252V79.2952Z" fill="#3D27FF"/>
<path d="M379.471 120.005C380.198 113.489 380.585 106.614 380.585 99.3512C380.585 79.9251 377.927 63.1646 372.793 49.2122H312.682V39.703H368.715C355.707 13.7632 332.27 0 299.69 0C280.506 0 264.504 4.78872 251.922 14.009H329.595V18.8875H246.032C228.214 35.4802 218.793 62.6943 218.793 99.3512C218.793 118.871 221.462 135.71 226.62 149.717H282.66V159.226H281.243V161.913H232.139C233.058 163.587 234.004 165.226 235.013 166.791H320.484V171.67H238.471C252.181 189.55 272.815 198.96 299.686 198.96C344.833 198.96 372.41 172.445 379.018 123.675H337.709V120.007H379.471V120.005ZM334.304 22.7903H342.681V31.1676H334.304V22.7903ZM299.688 138.527C284.233 138.527 281.302 124.758 281.302 99.3512C281.302 74.1119 284.231 60.4346 299.688 60.4346C314.922 60.4346 317.812 74.1119 317.812 99.3512C317.811 124.758 314.922 138.527 299.688 138.527Z" fill="#3D27FF"/>
<path d="M481.192 127.518C473.168 125.795 465.001 124.294 456.872 123.673H396.047V127.518H481.192Z" fill="#3D27FF"/>
<path d="M541.468 115.655V79.535H534.155V65.8753H541.468V48.1508H535.294V34.491H541.468V24.0082H506.176V21.5689H541.468V18.8858H499.672V14.0073H541.468V7.91309H474.274L467.435 17.6661H480.441V20.1054H465.723L463.842 22.7885H476.538V27.667H460.421L396.047 119.474V120.003H469.376V122.313C475.972 123.416 482.525 124.858 488.998 126.263C490.814 126.657 492.625 127.077 494.432 127.516H508.213L496.565 115.868C495.23 114.533 497.301 112.463 498.635 113.798L512.356 127.518H521.994V132.556H523.391V134.996H521.994V137.156L523.518 138.68C523.886 139.049 523.978 139.47 523.916 139.862C524.378 140.079 524.837 140.301 525.311 140.498C527.028 141.215 526.271 144.046 524.532 143.322C523.662 142.959 522.823 142.555 521.996 142.134V145.326H396.049V165.816H477.845V181.427H477.396V194.111H541.468V171.412H560.182V115.657H541.468V115.655ZM419.169 113.848H410.727V105.407H419.169V113.848ZM439.828 107.766H426.169V94.106H439.828V107.766ZM482.074 115.655H462.347L482.074 85.516V115.655ZM482.443 27.669V14.0092H496.103V27.669H482.443ZM503.892 41.3209H495.451V32.8792H503.892V41.3209ZM527.614 64.5756H523.213V70.6835H507.602V49.2182H523.213V56.132H527.614V64.5756Z" fill="#3D27FF"/>
<path d="M32.3664 108.825H13.875V122.485H32.3664V108.825Z" fill="#3D27FF"/>
<path d="M203.82 42.3828H190.16V56.0426H203.82V42.3828Z" fill="#3D27FF"/>
<path d="M215.899 50.2017H207.457V58.6434H215.899V50.2017Z" fill="#3D27FF"/>
<path d="M410.218 75.5679H391.727V89.2276H410.218V75.5679Z" fill="#3D27FF"/>
<path d="M563.183 27.6606H549.523V41.3204H563.183V27.6606Z" fill="#3D27FF"/>
<path d="M575.262 35.4805H566.82V43.9222H575.262V35.4805Z" fill="#3D27FF"/>
<path d="M417.075 62.8726H408.633V71.3143H417.075V62.8726Z" fill="#3D27FF"/>
<path d="M376.83 22.7905H368.453V31.1679H376.83V22.7905Z" fill="#3D27FF"/>
</g>
<g opacity="0.3667">
<path d="M185.572 94.2565H173.93V80.5968H185.572V62.8723H175.07V49.2125H185.572V38.7296H145.951V36.2904H185.572V33.6072H139.447V28.7288H185.572V9.21484H117.465L101.217 32.3876H120.218V34.8269H99.5078L97.6267 37.51H116.317V42.3885H94.2079L40.1562 119.476V134.724H109.157V138.393H40.1562V147.276H163.172V149.715H40.1562V167.765H121.239V171.411H121.504V198.5H185.576V171.411H204.29V159.224H190.938V149.715H204.29V115.655H185.576V94.2565H185.572ZM58.9443 128.568H50.5025V120.126H58.9443V128.568ZM79.6036 122.485H65.9439V108.826H79.6036V122.485ZM122.218 28.7288H135.878V42.3885H122.218V28.7288ZM126.178 115.655H106.451L126.178 85.5162V115.655ZM144.162 59.951H120.745V44.3399H144.162V59.951ZM167.389 79.2952H165.139V83.3677H147.089V69.2201H165.139V70.8535H167.389V79.2952Z" fill="#3D27FF"/>
<path d="M378.607 120.005C379.335 113.489 379.722 106.614 379.722 99.3512C379.722 79.9251 377.064 63.1646 371.93 49.2122H311.819V39.703H367.851C354.843 13.7632 331.407 0 298.827 0C279.642 0 263.641 4.78872 251.058 14.009H328.732V18.8875H245.169C227.351 35.4802 217.93 62.6943 217.93 99.3512C217.93 118.871 220.599 135.71 225.757 149.717H281.797V159.226H281.246V161.913H231.277C232.196 163.587 233.143 165.226 234.152 166.791H319.623V171.67H237.609C251.32 189.55 271.954 198.96 298.825 198.96C343.972 198.96 371.549 172.445 378.157 123.675H336.847V120.007H378.607V120.005ZM333.442 22.7903H341.82V31.1676H333.442V22.7903ZM298.825 138.527C283.37 138.527 280.439 124.758 280.439 99.3512C280.439 74.1119 283.368 60.4346 298.825 60.4346C314.059 60.4346 316.949 74.1119 316.949 99.3512C316.949 124.758 314.061 138.527 298.825 138.527Z" fill="#3D27FF"/>
<path d="M540.609 115.655V79.535H533.295V65.8753H540.609V48.1508H534.435V34.491H540.609V24.0082H505.316V21.5689H540.609V18.8858H498.812V14.0073H540.609V7.91309H473.415L466.575 17.6661H479.581V20.1054H464.864L462.983 22.7885H475.678V27.667H459.562L395.188 119.474V120.003H468.517V122.177C475.405 123.295 482.251 124.796 489.005 126.263C490.821 126.657 492.632 127.077 494.439 127.516H508.22L496.572 115.868C495.237 114.533 497.308 112.463 498.642 113.798L512.363 127.518H522.001V132.556H522.531V134.996H522.001V137.156L523.525 138.68C523.893 139.049 523.985 139.47 523.923 139.862C524.385 140.079 524.844 140.301 525.318 140.498C527.035 141.215 526.278 144.046 524.539 143.322C523.669 142.959 522.83 142.555 522.003 142.134V145.326H395.188V165.816H477.852V181.427H476.537V194.111H540.609V171.412H559.323V115.657H540.609V115.655ZM418.312 113.848H409.87V105.407H418.312V113.848ZM438.969 107.766H425.309V94.106H438.969V107.766ZM481.217 115.655H461.49L481.217 85.516V115.655ZM481.585 27.669V14.0092H495.245V27.669H481.585ZM503.033 41.3209H494.591V32.8792H503.033V41.3209ZM526.756 64.5756H523.224V70.6835H507.613V49.2182H523.224V56.132H526.756V64.5756Z" fill="#3D27FF"/>
<path d="M481.199 127.518C473.175 125.795 465.008 124.294 456.879 123.673H395.188V127.518H481.199Z" fill="#3D27FF"/>
<path d="M31.5031 108.825H13.0117V122.485H31.5031V108.825Z" fill="#3D27FF"/>
<path d="M202.961 42.3828H189.301V56.0426H202.961V42.3828Z" fill="#3D27FF"/>
<path d="M215.032 50.2017H206.59V58.6434H215.032V50.2017Z" fill="#3D27FF"/>
<path d="M409.359 75.5679H390.867V89.2276H409.359V75.5679Z" fill="#3D27FF"/>
<path d="M562.32 27.6606H548.66V41.3204H562.32V27.6606Z" fill="#3D27FF"/>
<path d="M574.399 35.4805H565.957V43.9222H574.399V35.4805Z" fill="#3D27FF"/>
<path d="M416.215 62.8726H407.773V71.3143H416.215V62.8726Z" fill="#3D27FF"/>
<path d="M375.971 22.7905H367.594V31.1679H375.971V22.7905Z" fill="#3D27FF"/>
</g>
<g opacity="0.4722">
<path d="M184.703 94.2565H173.063V80.5968H184.703V62.8723H174.2V49.2125H184.703V38.7296H145.082V36.2904H184.703V33.6072H138.578V28.7288H184.703V9.21484H116.595L100.346 32.3876H119.347V34.8269H98.6367L96.7556 37.51H115.444V42.3885H93.3328L39.2812 119.476V134.724H108.282V138.393H39.2812V147.276H162.297V149.715H39.2812V167.765H121.23V184.352H120.629V198.5H184.701V171.411H203.415V159.224H190.063V149.715H203.415V115.655H184.701V94.2565H184.703ZM58.0771 128.568H49.6353V120.126H58.0771V128.568ZM78.7364 122.485H65.0767V108.826H78.7364V122.485ZM121.351 28.7288H135.011V42.3885H121.351V28.7288ZM125.31 115.655H105.584L125.31 85.5162V115.655ZM144.161 59.951H120.744V44.3399H144.161V59.951ZM166.522 79.2952H165.14V83.3677H147.09V69.2201H165.14V70.8535H166.522V79.2952Z" fill="#3D27FF"/>
<path d="M377.742 120.005C378.47 113.489 378.856 106.614 378.856 99.3512C378.856 79.9251 376.198 63.1646 371.064 49.2122H310.954V39.703H366.986C353.978 13.7632 330.542 0 297.961 0C278.777 0 262.776 4.78872 250.193 14.009H327.866V18.8875H244.302C226.484 35.4802 217.062 62.6943 217.062 99.3512C217.062 118.871 219.732 135.71 224.89 149.717H280.93V155.083H281.248V161.913H230.412C231.331 163.587 232.277 165.226 233.286 166.791H318.757V171.67H236.744C250.455 189.55 271.089 198.96 297.959 198.96C343.109 198.96 370.684 172.445 377.291 123.675H335.982V120.007H377.742V120.005ZM332.575 22.7903H340.952V31.1676H332.575V22.7903ZM297.959 138.527C282.504 138.527 279.573 124.758 279.573 99.3512C279.573 74.1119 282.502 60.4346 297.959 60.4346C313.194 60.4346 316.084 74.1119 316.084 99.3512C316.082 124.758 313.194 138.527 297.959 138.527Z" fill="#3D27FF"/>
<path d="M481.2 127.518C473.176 125.795 465.009 124.294 456.88 123.673H394.32V127.518H481.2Z" fill="#3D27FF"/>
<path d="M539.742 115.655V79.535H532.428V65.8753H539.742V48.1508H533.568V34.491H539.742V24.0082H504.449V21.5689H539.742V18.8858H497.945V14.0073H539.742V7.91309H472.548L465.708 17.6661H478.714V20.1054H463.997L462.116 22.7885H474.811V27.667H458.695L394.32 119.474V120.003H467.65V122.04C474.831 123.17 481.967 124.735 489.006 126.263C490.822 126.657 492.633 127.077 494.44 127.516H508.221L496.573 115.868C495.238 114.533 497.309 112.463 498.644 113.798L512.364 127.518H522.002V137.156L523.526 138.68C523.895 139.049 523.986 139.47 523.924 139.862C524.386 140.079 524.845 140.301 525.319 140.498C527.036 141.215 526.279 144.046 524.541 143.322C523.67 142.959 522.831 142.555 522.004 142.134V145.326H394.322V165.816H477.854V181.427H475.67V194.111H539.742V171.412H558.456V115.657H539.742V115.655ZM417.442 113.848H409.001V105.407H417.442V113.848ZM438.102 107.766H424.442V94.106H438.102V107.766ZM480.347 115.655H460.621L480.347 85.516V115.655ZM480.716 27.669V14.0092H494.376V27.669H480.716ZM502.166 41.3209H493.724V32.8792H502.166V41.3209ZM525.887 64.5756H523.221V70.6835H507.61V49.2182H523.221V56.132H525.887V64.5756Z" fill="#3D27FF"/>
<path d="M30.6359 108.825H12.1445V122.485H30.6359V108.825Z" fill="#3D27FF"/>
<path d="M202.089 42.3828H188.43V56.0426H202.089V42.3828Z" fill="#3D27FF"/>
<path d="M214.16 50.2017H205.719V58.6434H214.16V50.2017Z" fill="#3D27FF"/>
<path d="M408.488 75.5679H389.996V89.2276H408.488V75.5679Z" fill="#3D27FF"/>
<path d="M561.453 27.6606H547.793V41.3204H561.453V27.6606Z" fill="#3D27FF"/>
<path d="M573.532 35.4805H565.09V43.9222H573.532V35.4805Z" fill="#3D27FF"/>
<path d="M415.344 62.8726H406.902V71.3143H415.344V62.8726Z" fill="#3D27FF"/>
<path d="M375.1 22.7905H366.723V31.1679H375.1V22.7905Z" fill="#3D27FF"/>
</g>
<g opacity="0.5778">
<path d="M183.836 94.2565H172.194V80.5968H183.836V62.8723H173.333V49.2125H183.836V38.7296H144.215V36.2904H183.836V33.6072H137.711V28.7288H183.836V9.21484H115.728L99.479 32.3876H118.48V34.8269H97.7695L95.8884 37.51H114.579V42.3885H92.4696L38.418 119.476V134.724H107.419V138.393H38.418V147.276H161.434V149.715H38.418V167.765H121.235V184.352H119.766V198.5H183.838V171.411H202.551V159.224H189.2V149.715H202.551V115.655H183.838L183.836 94.2565ZM57.2079 128.568H48.7662V120.126H57.2079V128.568ZM77.8673 122.485H64.2076V108.826H77.8673V122.485ZM120.482 28.7288H134.142V42.3885H120.482V28.7288ZM124.441 115.655H104.715L124.441 85.5162V115.655ZM144.16 59.951H120.743V44.3399H144.16V59.951ZM165.653 79.2952H165.137V83.3677H147.087V69.2201H165.137V70.8535H165.653V79.2952Z" fill="#3D27FF"/>
<path d="M376.871 120.005C377.599 113.489 377.985 106.614 377.985 99.3512C377.985 79.9251 375.327 63.1646 370.193 49.2122H310.081V39.703H366.113C353.105 13.7632 329.669 0 297.088 0C277.904 0 261.903 4.78872 249.32 14.009H326.993V18.8875H243.431C225.613 35.4802 216.191 62.6943 216.191 99.3512C216.191 118.871 218.861 135.71 224.018 149.717H280.058V155.083H281.243V161.913H229.539C230.458 163.587 231.404 165.226 232.413 166.791H317.884V171.67H235.871C249.582 189.55 270.216 198.96 297.086 198.96C342.234 198.96 369.811 172.445 376.418 123.675H335.109V120.007H376.871V120.005ZM331.706 22.7903H340.083V31.1676H331.706V22.7903ZM297.088 138.527C281.633 138.527 278.702 124.758 278.702 99.3512C278.702 74.1119 281.631 60.4346 297.088 60.4346C312.323 60.4346 315.213 74.1119 315.213 99.3512C315.213 124.758 312.325 138.527 297.088 138.527Z" fill="#3D27FF"/>
<path d="M481.196 127.518C473.171 125.795 465.005 124.294 456.875 123.673H393.449V127.518H481.196Z" fill="#3D27FF"/>
<path d="M538.869 115.655V79.535H531.555V65.8753H538.869V48.1508H532.695V34.491H538.869V24.0082H503.576V21.5689H538.869V18.8858H497.072V14.0073H538.869V7.91309H471.677L464.837 17.6661H477.843V20.1054H463.126L461.244 22.7885H473.94V27.667H457.824L393.449 119.474V120.003H466.779V121.904C474.252 123.041 481.679 124.673 489.001 126.263C490.818 126.657 492.629 127.077 494.436 127.516H508.216L496.569 115.868C495.234 114.533 497.304 112.463 498.639 113.798L512.359 127.518H521.997V137.156L523.521 138.68C523.89 139.049 523.982 139.47 523.919 139.862C524.382 140.079 524.84 140.301 525.314 140.498C527.032 141.215 526.275 144.046 524.536 143.322C523.666 142.959 522.827 142.555 521.999 142.134V145.326H393.449V165.816H477.849V181.427H474.799V194.111H538.871V171.412H557.585V115.657H538.869V115.655ZM416.571 113.848H408.129V105.407H416.571V113.848ZM437.231 107.766H423.571V94.106H437.231V107.766ZM479.476 115.655H459.75L479.476 85.516V115.655ZM479.845 27.669V14.0092H493.505V27.669H479.845ZM501.293 41.3209H492.851V32.8792H501.293V41.3209ZM525.016 64.5756H523.219V70.6835H507.608V49.2182H523.219V56.132H525.016V64.5756Z" fill="#3D27FF"/>
<path d="M29.7648 108.825H11.2734V122.485H29.7648V108.825Z" fill="#3D27FF"/>
<path d="M201.222 42.3828H187.562V56.0426H201.222V42.3828Z" fill="#3D27FF"/>
<path d="M213.301 50.2017H204.859V58.6434H213.301V50.2017Z" fill="#3D27FF"/>
<path d="M407.62 75.5679H389.129V89.2276H407.62V75.5679Z" fill="#3D27FF"/>
<path d="M560.582 27.6606H546.922V41.3204H560.582V27.6606Z" fill="#3D27FF"/>
<path d="M572.66 35.4805H564.219V43.9222H572.66V35.4805Z" fill="#3D27FF"/>
<path d="M414.477 62.8726H406.035V71.3143H414.477V62.8726Z" fill="#3D27FF"/>
<path d="M374.233 22.7905H365.855V31.1679H374.233V22.7905Z" fill="#3D27FF"/>
</g>
<g opacity="0.6833">
<path d="M182.97 94.2565H171.33V80.5968H182.97V62.8723H172.468V49.2125H182.97V38.7296H143.349V36.2904H182.97V33.6072H136.845V28.7288H182.97V9.21484H114.863L98.6137 32.3876H117.614V34.8269H96.9043L95.0232 37.51H113.714V42.3885H91.6024L37.5508 119.476V134.724H106.552V138.393H37.5508V147.276H160.567V149.715H37.5508V167.765H121.234V184.352H118.898V198.5H182.97V171.411H201.684V159.224H188.333V149.715H201.684V115.655H182.97V94.2565ZM56.3446 128.568H47.9029V120.126H56.3446V128.568ZM77.004 122.485H63.3443V108.826H77.004V122.485ZM119.619 28.7288H133.278V42.3885H119.619V28.7288ZM123.578 115.655H103.851L123.578 85.5162V115.655ZM144.163 59.951H120.746V44.3399H144.163V59.951ZM165.141 83.3677H147.09V69.2201H165.141V83.3677Z" fill="#3D27FF"/>
<path d="M376.012 120.005C376.739 113.489 377.126 106.614 377.126 99.3512C377.126 79.9251 374.468 63.1646 369.332 49.2122H309.221V39.703H365.254C352.246 13.7632 328.809 0 296.229 0C277.045 0 261.041 4.78872 248.461 14.009H326.134V18.8875H242.572C224.753 35.4802 215.332 62.6943 215.332 99.3512C215.332 118.871 218.002 135.71 223.159 149.717H279.199V155.083H281.25V161.913H228.68C229.597 163.587 230.545 165.226 231.554 166.791H317.025V171.67H235.012C248.722 189.55 269.356 198.96 296.227 198.96C341.376 198.96 368.951 172.445 375.559 123.675H334.25V120.007H376.012V120.005ZM330.845 22.7903H339.222V31.1676H330.845V22.7903ZM296.229 138.527C280.774 138.527 277.843 124.758 277.843 99.3512C277.843 74.1119 280.772 60.4346 296.229 60.4346C311.463 60.4346 314.353 74.1119 314.353 99.3512C314.353 124.758 311.463 138.527 296.229 138.527Z" fill="#3D27FF"/>
<path d="M481.205 127.518C473.18 125.795 465.014 124.294 456.884 123.673H392.59V127.518H481.205Z" fill="#3D27FF"/>
<path d="M538.011 115.655V79.535H530.698V65.8753H538.011V48.1508H531.837V34.491H538.011V24.0082H502.719V21.5689H538.011V18.8858H496.215V14.0073H538.011V7.91309H470.817L463.978 17.6661H476.984V20.1054H462.266L460.385 22.7885H473.081V27.667H456.964L392.59 119.474V120.003H465.919V121.767C473.688 122.907 481.406 124.612 489.01 126.263C490.827 126.657 492.638 127.077 494.445 127.516H508.225L496.578 115.868C495.243 114.533 497.313 112.463 498.648 113.798L512.368 127.518H522.006V137.156L523.53 138.68C523.899 139.049 523.991 139.47 523.928 139.862C524.391 140.079 524.849 140.301 525.323 140.498C527.041 141.215 526.284 144.046 524.545 143.322C523.675 142.959 522.836 142.555 522.008 142.134V145.326H392.592V165.816H477.858V181.427H473.939V194.111H538.011V171.412H556.725V115.657H538.011V115.655ZM415.712 113.848H407.27V105.407H415.712V113.848ZM436.371 107.766H422.712V94.106H436.371V107.766ZM478.617 115.655H458.89L478.617 85.516V115.655ZM478.986 27.669V14.0092H492.645V27.669H478.986ZM500.435 41.3209H491.994V32.8792H500.435V41.3209ZM524.157 64.5756H523.226V70.6835H507.615V49.2182H523.226V56.132H524.157V64.5756Z" fill="#3D27FF"/>
<path d="M28.9055 108.825H10.4141V122.485H28.9055V108.825Z" fill="#3D27FF"/>
<path d="M200.359 42.3828H186.699V56.0426H200.359V42.3828Z" fill="#3D27FF"/>
<path d="M212.43 50.2017H203.988V58.6434H212.43V50.2017Z" fill="#3D27FF"/>
<path d="M406.757 75.5679H388.266V89.2276H406.757V75.5679Z" fill="#3D27FF"/>
<path d="M559.722 27.6606H546.062V41.3204H559.722V27.6606Z" fill="#3D27FF"/>
<path d="M571.801 35.4805H563.359V43.9222H571.801V35.4805Z" fill="#3D27FF"/>
<path d="M413.614 62.8726H405.172V71.3143H413.614V62.8726Z" fill="#3D27FF"/>
<path d="M373.37 22.7905H364.992V31.1679H373.37V22.7905Z" fill="#3D27FF"/>
</g>
<g opacity="0.7889">
<path d="M182.099 94.2565H170.459V80.5968H182.099V62.8723H171.597V49.2125H182.099V38.7296H142.478V36.2904H182.099V33.6072H135.974V28.7288H182.099V9.21484H113.992L97.7426 32.3876H116.743V34.8269H96.0332L94.1521 37.51H112.843V42.3885H90.7313L36.6797 119.476V134.724H105.681V138.393H36.6797V147.276H159.695V149.715H36.6797V167.765H121.23V184.352H118.027V198.5H182.099V171.411H200.813V159.224H187.462V149.715H200.813V115.655H182.099V94.2565ZM55.4716 128.568H47.0299V120.126H55.4716V128.568ZM76.131 122.485H62.4712V108.826H76.131V122.485ZM118.745 28.7288H132.405V42.3885H118.745V28.7288ZM122.705 115.655H102.978L122.705 85.5162V115.655ZM144.158 59.951H120.742V44.3399H144.158V59.951ZM165.136 83.3677H147.086V69.2201H165.136V83.3677Z" fill="#3D27FF"/>
<path d="M375.141 120.005C375.868 113.489 376.255 106.614 376.255 99.3512C376.255 79.9251 373.597 63.1646 368.461 49.2122H308.35V39.703H364.382C351.374 13.7632 327.938 0 295.358 0C276.174 0 260.172 4.78872 247.59 14.009H325.263V18.8875H241.7C223.882 35.4802 214.461 62.6943 214.461 99.3512C214.461 118.871 217.13 135.71 222.288 149.717H278.328V155.083H281.247V161.913H227.808C228.728 163.587 229.674 165.226 230.683 166.791H316.154V171.67H234.141C247.851 189.55 268.485 198.96 295.356 198.96C340.503 198.96 368.08 172.445 374.688 123.675H333.379V120.007H375.141V120.005ZM329.976 22.7903H338.353V31.1676H329.976V22.7903ZM295.36 138.527C279.905 138.527 276.974 124.758 276.974 99.3512C276.974 74.1119 279.903 60.4346 295.36 60.4346C310.594 60.4346 313.484 74.1119 313.484 99.3512C313.482 124.758 310.594 138.527 295.36 138.527Z" fill="#3D27FF"/>
<path d="M481.2 127.518C473.176 125.795 465.009 124.294 456.88 123.673H391.719V127.518H481.2Z" fill="#3D27FF"/>
<path d="M537.14 115.655V79.535H529.827V65.8753H537.14V48.1508H530.966V34.491H537.14V24.0082H501.848V21.5689H537.14V18.8858H495.344V14.0073H537.14V7.91309H469.946L463.107 17.6661H476.113V20.1054H461.395L459.514 22.7885H472.21V27.667H456.093L391.719 119.474V120.003H465.048V121.64C473.109 122.778 481.118 124.55 489.005 126.263C490.822 126.657 492.633 127.077 494.44 127.516H508.221L496.573 115.868C495.238 114.533 497.309 112.463 498.643 113.798L512.364 127.518H522.001V137.156L523.526 138.68C523.894 139.049 523.986 139.47 523.924 139.862C524.386 140.079 524.845 140.301 525.319 140.498C527.036 141.215 526.279 144.046 524.54 143.322C523.67 142.959 522.831 142.555 522.003 142.134V145.326H391.721V165.816H477.853V181.427H473.068V194.111H537.14V171.412H555.854V115.657H537.14V115.655ZM414.843 113.848H406.401V105.407H414.843V113.848ZM435.502 107.766H421.842V94.106H435.502V107.766ZM477.748 115.655H458.021L477.748 85.516V115.655ZM478.117 27.669V14.0092H491.776V27.669H478.117ZM499.566 41.3209H491.125V32.8792H499.566V41.3209ZM523.287 64.5756H523.225V70.6835H507.614V49.2182H523.225V56.132H523.287V64.5756Z" fill="#3D27FF"/>
<path d="M28.0344 108.825H9.54297V122.485H28.0344V108.825Z" fill="#3D27FF"/>
<path d="M199.492 42.3828H185.832V56.0426H199.492V42.3828Z" fill="#3D27FF"/>
<path d="M211.571 50.2017H203.129V58.6434H211.571V50.2017Z" fill="#3D27FF"/>
<path d="M405.89 75.5679H387.398V89.2276H405.89V75.5679Z" fill="#3D27FF"/>
<path d="M558.851 27.6606H545.191V41.3204H558.851V27.6606Z" fill="#3D27FF"/>
<path d="M570.93 35.4805H562.488V43.9222H570.93V35.4805Z" fill="#3D27FF"/>
<path d="M412.746 62.8726H404.305V71.3143H412.746V62.8726Z" fill="#3D27FF"/>
<path d="M372.502 22.7905H364.125V31.1679H372.502V22.7905Z" fill="#3D27FF"/>
</g>
<g opacity="0.8944">
<path d="M181.238 94.2565H169.596V80.5968H181.238V62.8723H170.736V49.2125H181.238V38.7296H141.617V36.2904H181.238V33.6072H135.113V28.7288H181.238V9.21484H113.131L96.8813 32.3876H115.882V34.8269H95.1719L93.2907 37.51H111.981V42.3885H89.8719L35.8203 119.476V134.724H104.822V138.393H35.8203V147.276H158.836V149.715H35.8203V167.765H121.239V184.352H117.168V198.5H181.24V171.411H199.954V159.224H186.602V149.715H199.954V115.655H181.24V94.2565H181.238ZM54.6103 128.568H46.1685V120.126H54.6103V128.568ZM75.2696 122.485H61.6099V108.826H75.2696V122.485ZM117.884 28.7288H131.544V42.3885H117.884V28.7288ZM121.844 115.655H102.117L121.844 85.5162V115.655ZM144.164 59.951H120.747V44.3399H144.164V59.951ZM165.141 83.3677H147.091V69.2201H165.141V83.3677Z" fill="#3D27FF"/>
<path d="M374.271 120.005C374.999 113.489 375.386 106.614 375.386 99.3512C375.386 79.9251 372.728 63.1646 367.594 49.2122H307.483V39.703H363.515C350.507 13.7632 327.071 0 294.491 0C275.307 0 259.305 4.78872 246.723 14.009H324.394V18.8875H240.833C223.015 35.4802 213.594 62.6943 213.594 99.3512C213.594 118.871 216.263 135.71 221.421 149.717H277.461V155.083H281.247V161.913H226.941C227.86 163.587 228.807 165.226 229.816 166.791H315.287V171.67H233.274C246.984 189.55 267.618 198.96 294.489 198.96C339.636 198.96 367.213 172.445 373.821 123.675H332.512V120.007H374.271V120.005ZM329.104 22.7903H337.482V31.1676H329.104V22.7903ZM294.489 138.527C279.034 138.527 276.103 124.758 276.103 99.3512C276.103 74.1119 279.032 60.4346 294.489 60.4346C309.723 60.4346 312.613 74.1119 312.613 99.3512C312.613 124.758 309.723 138.527 294.489 138.527Z" fill="#3D27FF"/>
<path d="M481.199 127.518C473.175 125.795 465.008 124.294 456.879 123.673H390.852V127.518H481.199Z" fill="#3D27FF"/>
<path d="M536.273 115.655V79.535H528.959V65.8753H536.273V48.1508H530.099V34.491H536.273V24.0082H500.98V21.5689H536.273V18.8858H494.476V14.0073H536.273V7.91309H469.079L462.239 17.6661H475.245V20.1054H460.528L458.647 22.7885H471.343V27.667H455.226L390.852 119.474V120.003H464.181V121.531C472.535 122.661 480.834 124.489 489.007 126.263C490.823 126.657 492.634 127.077 494.441 127.516H508.222L496.574 115.868C495.239 114.533 497.31 112.463 498.645 113.798L512.365 127.518H522.003V137.156L523.527 138.68C523.896 139.049 523.987 139.47 523.925 139.862C524.387 140.079 524.846 140.301 525.32 140.498C527.037 141.215 526.28 144.046 524.541 143.322C523.671 142.959 522.832 142.555 522.005 142.134V145.326H390.854V165.816H477.854V181.427H472.203V194.111H536.275V171.412H554.989V115.657H536.273V115.655ZM413.974 113.848H405.532V105.407H413.974V113.848ZM434.633 107.766H420.973V94.106H434.633V107.766ZM476.881 115.655H457.154L476.881 85.516V115.655ZM477.248 27.669V14.0092H490.907V27.669H477.248ZM498.697 41.3209H490.255V32.8792H498.697V41.3209ZM523.222 70.6835H507.611V49.2182H523.222V70.6835Z" fill="#3D27FF"/>
<path d="M27.1672 108.825H8.67578V122.485H27.1672V108.825Z" fill="#3D27FF"/>
<path d="M198.625 42.3828H184.965V56.0426H198.625V42.3828Z" fill="#3D27FF"/>
<path d="M210.692 50.2017H202.25V58.6434H210.692V50.2017Z" fill="#3D27FF"/>
<path d="M405.019 75.5679H386.527V89.2276H405.019V75.5679Z" fill="#3D27FF"/>
<path d="M557.984 27.6606H544.324V41.3204H557.984V27.6606Z" fill="#3D27FF"/>
<path d="M570.063 35.4805H561.621V43.9222H570.063V35.4805Z" fill="#3D27FF"/>
<path d="M411.875 62.8726H403.434V71.3143H411.875V62.8726Z" fill="#3D27FF"/>
<path d="M371.635 22.7905H363.258V31.1679H371.635V22.7905Z" fill="#3D27FF"/>
</g>
<path d="M180.367 94.2565H168.725V80.5968H180.367V62.8723H169.865V49.2125H180.367V38.7296H140.746V36.2904H180.367V33.6072H134.242V28.7288H180.367V9.21484H112.259L96.0122 32.3876H115.013V34.8269H94.3028L92.4216 37.51H111.112V42.3885H89.0008L34.9492 119.476V134.724H103.95V138.393H34.9492V147.276H157.965V149.715H34.9492V167.765H121.234V184.352H116.297V198.5H180.369V171.411H199.083V159.224H185.731V149.715H199.083V115.655H180.369L180.367 94.2565ZM53.7411 128.568H45.2994V120.126H53.7411V128.568ZM74.3986 122.485H60.7388V108.826H74.3986V122.485ZM117.013 28.7288H130.673V42.3885H117.013V28.7288ZM120.974 115.655H101.246L120.972 85.5162V115.655H120.974ZM144.161 59.951H120.744V44.3399H144.161V59.951ZM165.138 83.3677H147.088V69.2201H165.138V83.3677Z" fill="#3D27FF"/>
<path d="M373.402 120.005C374.13 113.489 374.516 106.614 374.516 99.3512C374.516 79.9251 371.859 63.1646 366.723 49.2122H306.612V39.703H362.644C349.636 13.7632 326.2 0 293.62 0C274.435 0 258.434 4.78872 245.851 14.009H323.525V18.8875H239.962C222.144 35.4802 212.723 62.6943 212.723 99.3512C212.723 118.871 215.392 135.71 220.55 149.717H276.59V155.083H281.244V161.913H226.07C226.989 163.587 227.936 165.226 228.945 166.791H314.416V171.67H232.402C246.113 189.55 266.747 198.96 293.618 198.96C338.767 198.96 366.342 172.445 372.949 123.675H331.644V120.007H373.402V120.005ZM328.237 22.7903H336.615V31.1676H328.237V22.7903ZM293.621 138.527C278.166 138.527 275.235 124.758 275.235 99.3512C275.235 74.1119 278.164 60.4346 293.621 60.4346C308.856 60.4346 311.746 74.1119 311.746 99.3512C311.744 124.758 308.856 138.527 293.621 138.527Z" fill="#3D27FF"/>
<path d="M481.196 127.518C473.172 125.795 465.006 124.294 456.876 123.673H389.98V127.518H481.196Z" fill="#3D27FF"/>
<path d="M535.402 115.655V79.535H528.088V65.8753H535.402V48.1508H529.228V34.491H535.402V24.0082H500.109V21.5689H535.402V18.8858H493.605V14.0073H535.402V7.91309H468.208L461.368 17.6661H474.374V20.1054H459.657L457.776 22.7885H470.472V27.667H454.355L389.98 119.474V120.003H463.31V121.42C471.956 122.536 480.549 124.427 489.002 126.263C490.819 126.657 492.63 127.077 494.437 127.516H508.217L496.569 115.868C495.235 114.533 497.305 112.463 498.64 113.798L512.36 127.518H521.998V137.156L523.522 138.68C523.891 139.049 523.983 139.47 523.92 139.862C524.383 140.079 524.841 140.301 525.315 140.498C527.033 141.215 526.275 144.046 524.537 143.322C523.666 142.959 522.827 142.555 522 142.134V145.326H389.982V165.816H477.85V181.427H471.33V194.111H535.402V171.412H554.116V115.657H535.402V115.655ZM413.103 113.848H404.661V105.407H413.103V113.848ZM433.762 107.766H420.102V94.106H433.762V107.766ZM476.008 115.655H456.281L476.008 85.516V115.655ZM476.376 27.669V14.0092H490.036V27.669H476.376ZM497.826 41.3209H489.384V32.8792H497.826V41.3209ZM523.218 70.6835H507.606V49.2182H523.218V70.6835Z" fill="#3D27FF"/>
<path d="M26.2961 108.825H7.80469V122.485H26.2961V108.825Z" fill="#3D27FF"/>
<path d="M197.753 42.3828H184.094V56.0426H197.753V42.3828Z" fill="#3D27FF"/>
<path d="M209.832 50.2017H201.391V58.6434H209.832V50.2017Z" fill="#3D27FF"/>
<path d="M404.152 75.5679H385.66V89.2276H404.152V75.5679Z" fill="#3D27FF"/>
<path d="M557.113 27.6606H543.453V41.3204H557.113V27.6606Z" fill="#3D27FF"/>
<path d="M569.192 35.4805H560.75V43.9222H569.192V35.4805Z" fill="#3D27FF"/>
<path d="M411.008 62.8726H402.566V71.3143H411.008V62.8726Z" fill="#3D27FF"/>
<path d="M370.764 22.7905H362.387V31.1679H370.764V22.7905Z" fill="#3D27FF"/>
<path d="M183.78 149.715H197.132V115.655H178.418V94.2565H166.776V80.5967H178.418V62.8723H167.915V49.2125H178.418V38.7296H138.797V36.2904H178.418V33.6072H132.293V28.7287H178.418V7.01758H111.852L94.0629 32.3876H113.064V34.8268H92.3535L90.4724 37.51H109.163V42.3885H87.0516L33 119.476V134.724H102.001V138.393H33V147.276H156.016V149.715H33V171.411H114.348V199.999H178.42V171.411H197.133V159.224H183.782L183.78 149.715ZM115.064 28.7287H128.724V42.3885H115.064V28.7287ZM51.7919 128.568H43.3502V120.126H51.7919V128.568ZM72.4493 122.485H58.7896V108.826H72.4493V122.485ZM119.025 115.655H99.2966L119.023 85.5162V115.655H119.025ZM136.514 56.0424H128.072V47.6007H136.514V56.0424ZM160.237 79.2952H151.795V70.8535H160.237V79.2952Z" fill="#101010"/>
<path d="M329.693 120.005H371.453C372.181 113.489 372.567 106.614 372.567 99.3512C372.567 79.9251 369.909 63.1646 364.773 49.2122H304.663V39.703H360.695C347.687 13.7632 324.251 0 291.67 0C272.486 0 256.485 4.78872 243.902 14.009H321.575V18.8875H238.013C220.195 35.4802 210.773 62.6943 210.773 99.3512C210.773 118.871 213.443 135.71 218.6 149.717H274.641V159.226H222.683C224.012 161.876 225.452 164.397 226.995 166.791H312.466V171.67H230.453C244.164 189.55 264.798 198.96 291.668 198.96C336.818 198.96 364.393 172.445 371 123.675H329.693V120.005ZM326.286 22.7903H334.663V31.1676H326.286V22.7903ZM291.67 138.527C276.215 138.527 273.284 124.758 273.284 99.3512C273.284 74.1119 276.213 60.4346 291.67 60.4346C306.905 60.4346 309.795 74.1119 309.795 99.3512C309.793 124.758 306.905 138.527 291.67 138.527Z" fill="#101010"/>
<path d="M533.451 79.5371H526.137V65.8774H533.451V48.1529H527.277V34.4932H533.451V24.0103H498.158V21.571H533.451V18.8879H491.654V14.0094H533.451V7.01758H466.887L459.419 17.6683H472.425V20.1075H457.708L455.827 22.7907H468.522V27.6691H452.406L388.031 119.476V120.005H461.361V123.674H388.031V132.556H515.377V134.996H388.031V171.413H469.381V200H533.453V171.413H552.167V115.657H533.453V79.5371H533.451ZM411.151 113.848H402.71V105.407H411.151V113.848ZM431.811 107.766H418.151V94.1062H431.811V107.766ZM474.056 115.655H454.33L474.056 85.5162V115.655ZM474.425 14.0094H488.085V27.6691H474.425V14.0094ZM495.875 41.3211H487.433V32.8794H495.875V41.3211ZM519.596 64.5758H511.154V56.1341H519.596V64.5758Z" fill="#101010"/>
<path d="M24.3469 108.825H5.85547V122.485H24.3469V108.825Z" fill="#101010"/>
<path d="M195.804 42.3828H182.145V56.0426H195.804V42.3828Z" fill="#101010"/>
<path d="M207.879 50.2017H199.438V58.6434H207.879V50.2017Z" fill="#101010"/>
<path d="M402.198 75.5679H383.707V89.2276H402.198V75.5679Z" fill="#101010"/>
<path d="M555.164 27.6606H541.504V41.3204H555.164V27.6606Z" fill="#101010"/>
<path d="M567.242 35.4805H558.801V43.9222H567.242V35.4805Z" fill="#101010"/>
<path d="M409.055 62.8726H400.613V71.3143H409.055V62.8726Z" fill="#101010"/>
<path d="M368.815 22.7905H360.438V31.1679H368.815V22.7905Z" fill="#101010"/>
</svg>
