<svg width="188" height="188" viewBox="0 0 188 188" fill="none" xmlns="http://www.w3.org/2000/svg">
<path d="M123.914 30.0689C125.357 34.3091 127.428 38.3848 130.11 42.1771C136.58 51.3342 145.872 57.839 156.249 60.7902L119.828 78.1589C113.836 81.0155 110.223 86.9129 110.392 93.5469C110.561 100.181 114.473 105.884 120.6 108.432L157.841 123.92C148.037 127.244 139.392 133.803 133.37 142.811C130.543 147.036 128.453 151.555 127.119 156.234L109.765 119.839C106.988 114.016 101.255 110.398 94.8095 110.398C88.3645 110.398 82.0737 114.409 79.4907 120.61L63.9978 157.866C62.5545 153.621 60.4841 149.55 57.8016 145.748C51.3317 136.596 42.0399 130.086 31.6632 127.14L68.0838 109.771C74.0759 106.914 77.6891 101.017 77.5199 94.383C77.3507 87.7491 73.4389 82.0457 67.3124 79.4976L30.0706 64.01C39.875 60.6855 48.5198 54.1262 54.5417 45.1184C57.3686 40.8931 59.4589 36.3742 60.7927 31.6961L78.147 68.091C80.9241 73.9137 86.6574 77.5317 93.1024 77.5317C99.5475 77.5317 105.838 73.5204 108.421 67.3195L123.909 30.0689M129.737 0.959961L103.071 65.0899C101.24 69.4993 97.1785 71.729 93.1124 71.729C89.0463 71.729 85.3535 69.6985 83.3926 65.5927L53.4966 2.90083C65.3316 31.5817 43.2045 60.6706 15.15 60.6706C10.5364 60.6706 5.76858 59.8843 0.960938 58.1823L65.0927 84.8476C73.7026 88.4258 74.0112 100.514 65.5954 104.526L2.90191 134.421C8.3217 132.186 13.7564 131.161 19.007 131.161C46.106 131.161 68.2878 158.433 58.1848 186.96L84.8508 122.83C86.6823 118.42 90.7434 116.191 94.8095 116.191C98.8756 116.191 102.568 118.221 104.529 122.327L134.425 185.019C122.59 156.338 144.717 127.249 172.772 127.249C177.385 127.249 182.153 128.035 186.961 129.737L122.829 103.072C114.219 99.4941 113.911 87.4056 122.327 83.3944L185.02 53.4991C179.6 55.7336 174.165 56.759 168.915 56.759C141.816 56.759 119.629 29.4865 129.737 0.959961Z" fill="#3D27FF"/>
<path d="M123.914 30.0689C125.357 34.3091 127.428 38.3848 130.11 42.1771C136.58 51.3342 145.872 57.839 156.249 60.7902L119.828 78.1589C113.836 81.0155 110.223 86.9129 110.392 93.5469C110.561 100.181 114.473 105.884 120.6 108.432L157.841 123.92C148.037 127.244 139.392 133.803 133.37 142.811C130.543 147.036 128.453 151.555 127.119 156.234L109.765 119.839C106.988 114.016 101.255 110.398 94.8095 110.398C88.3645 110.398 82.0737 114.409 79.4907 120.61L63.9978 157.866C62.5545 153.621 60.4841 149.55 57.8016 145.748C51.3317 136.596 42.0399 130.086 31.6632 127.14L68.0838 109.771C74.0759 106.914 77.6891 101.017 77.5199 94.383C77.3507 87.7491 73.4389 82.0457 67.3124 79.4976L30.0706 64.01C39.875 60.6855 48.5198 54.1262 54.5417 45.1184C57.3686 40.8931 59.4589 36.3742 60.7927 31.6961L78.147 68.091C80.9241 73.9137 86.6574 77.5317 93.1024 77.5317C99.5475 77.5317 105.838 73.5204 108.421 67.3194L123.909 30.0689M129.737 0.959961L103.071 65.0899C101.24 69.4993 97.1785 71.729 93.1124 71.729C89.0463 71.729 85.3535 69.6985 83.3926 65.5927L53.4966 2.90083C65.3316 31.5817 43.2045 60.6706 15.15 60.6706C10.5364 60.6706 5.76858 59.8843 0.960938 58.1823L65.0927 84.8476C73.7026 88.4258 74.0112 100.514 65.5954 104.526L2.90191 134.421C8.3217 132.186 13.7564 131.161 19.007 131.161C46.106 131.161 68.2878 158.433 58.1848 186.96L84.8508 122.83C86.6823 118.42 90.7434 116.191 94.8095 116.191C98.8756 116.191 102.568 118.221 104.529 122.327L134.425 185.019C122.59 156.338 144.717 127.249 172.772 127.249C177.385 127.249 182.153 128.035 186.961 129.737L122.829 103.072C114.219 99.4941 113.911 87.4056 122.327 83.3944L185.02 53.4991C179.6 55.7336 174.165 56.759 168.915 56.759C141.816 56.759 119.629 29.4865 129.737 0.959961Z" stroke="#3D27FF" stroke-width="5"/>
</svg>
