<svg width="237" height="237" viewBox="0 0 237 237" fill="none" xmlns="http://www.w3.org/2000/svg">
<path d="M156.305 37.7374C158.129 43.0946 160.744 48.244 164.134 53.0353C172.308 64.6049 184.048 72.8232 197.158 76.5519L151.143 98.4962C143.572 102.105 139.007 109.556 139.221 117.938C139.434 126.32 144.377 133.526 152.117 136.745L199.17 156.312C186.783 160.513 175.861 168.8 168.252 180.181C164.681 185.519 162.04 191.228 160.354 197.139L138.428 151.156C134.92 143.8 127.676 139.228 119.533 139.228C111.39 139.228 103.442 144.296 100.179 152.131L80.6043 199.201C78.7807 193.838 76.165 188.695 72.7758 183.891C64.6014 172.327 52.8618 164.103 39.7514 160.381L85.7667 138.436C93.3374 134.827 97.9025 127.376 97.6887 118.994C97.4749 110.613 92.5325 103.407 84.7921 100.188L37.7392 80.6199C50.1265 76.4197 61.0487 68.1324 68.6571 56.7515C72.2287 51.4132 74.8696 45.7037 76.5548 39.7932L98.481 85.776C101.99 93.1328 109.233 97.7038 117.376 97.7038C125.519 97.7038 133.467 92.6358 136.731 84.8013L156.299 37.7374M163.662 0.959961L129.971 81.9843C127.657 87.5553 122.526 90.3725 117.389 90.3725C112.252 90.3725 107.586 87.807 105.108 82.6196L67.3367 3.41214C82.2894 39.6487 54.3332 76.4009 18.8879 76.4009C13.059 76.4009 7.03511 75.4074 0.960938 73.257L81.9876 106.947C92.8658 111.468 93.2556 126.741 82.6227 131.809L3.41324 169.58C10.2608 166.756 17.1273 165.461 23.7611 165.461C57.9991 165.461 86.0245 199.918 73.2599 235.96L106.951 154.935C109.265 149.364 114.396 146.547 119.533 146.547C124.67 146.547 129.336 149.113 131.813 154.3L169.585 233.507C154.632 197.271 182.589 160.519 218.034 160.519C223.863 160.519 229.887 161.512 235.961 163.663L154.934 129.973C144.056 125.452 143.666 110.179 154.299 105.111L233.509 67.34C226.661 70.1633 219.795 71.4587 213.161 71.4587C178.923 71.4587 150.891 37.0016 163.662 0.959961Z" fill="#3D27FF"/>
<path d="M156.305 37.7374C158.129 43.0946 160.744 48.244 164.134 53.0353C172.308 64.6049 184.048 72.8232 197.158 76.5519L151.143 98.4962C143.572 102.105 139.007 109.556 139.221 117.938C139.434 126.32 144.377 133.526 152.117 136.745L199.17 156.312C186.783 160.513 175.861 168.8 168.252 180.181C164.681 185.519 162.04 191.228 160.354 197.139L138.428 151.156C134.92 143.8 127.676 139.228 119.533 139.228C111.39 139.228 103.442 144.296 100.179 152.131L80.6043 199.201C78.7807 193.838 76.165 188.695 72.7758 183.891C64.6014 172.327 52.8618 164.103 39.7514 160.381L85.7667 138.436C93.3374 134.827 97.9025 127.376 97.6887 118.994C97.4749 110.613 92.5325 103.407 84.7921 100.188L37.7392 80.6199C50.1265 76.4197 61.0487 68.1324 68.6571 56.7515C72.2287 51.4132 74.8696 45.7037 76.5548 39.7932L98.481 85.776C101.99 93.1328 109.233 97.7038 117.376 97.7038C125.519 97.7038 133.467 92.6358 136.731 84.8013L156.299 37.7374M163.662 0.959961L129.971 81.9843C127.657 87.5553 122.526 90.3725 117.389 90.3725C112.252 90.3725 107.586 87.807 105.108 82.6196L67.3367 3.41214C82.2894 39.6487 54.3332 76.4009 18.8879 76.4009C13.059 76.4009 7.03511 75.4074 0.960938 73.257L81.9876 106.947C92.8658 111.468 93.2556 126.741 82.6227 131.809L3.41324 169.58C10.2608 166.756 17.1273 165.461 23.7611 165.461C57.9991 165.461 86.0245 199.918 73.2599 235.96L106.951 154.935C109.265 149.364 114.396 146.547 119.533 146.547C124.67 146.547 129.336 149.113 131.813 154.3L169.585 233.507C154.632 197.271 182.589 160.519 218.034 160.519C223.863 160.519 229.887 161.512 235.961 163.663L154.934 129.973C144.056 125.452 143.666 110.179 154.299 105.111L233.509 67.34C226.661 70.1633 219.795 71.4587 213.161 71.4587C178.923 71.4587 150.891 37.0016 163.662 0.959961Z" stroke="#3D27FF" stroke-width="5"/>
</svg>
