<svg width="80" height="78" viewBox="0 0 80 78" fill="none" xmlns="http://www.w3.org/2000/svg">
<path d="M38.6735 0.807807C38.9457 -0.269406 40.4762 -0.26941 40.7484 0.807804L46.6894 24.319C46.8528 24.9656 47.5614 25.3068 48.1688 25.0314L70.2548 15.0173C71.2667 14.5585 72.2209 15.7551 71.5484 16.6395L56.8708 35.9434C56.4672 36.4743 56.6422 37.2411 57.2362 37.5442L78.8359 48.568C79.8255 49.0731 79.485 50.5652 78.3742 50.5909L54.1304 51.1513C53.4637 51.1667 52.9734 51.7816 53.1067 52.435L57.9552 76.1956C58.1773 77.2842 56.7984 77.9483 56.0857 77.0958L40.5319 58.4907C40.1042 57.979 39.3177 57.979 38.89 58.4907L23.3361 77.0958C22.6235 77.9483 21.2446 77.2842 21.4667 76.1956L26.3152 52.435C26.4485 51.7816 25.9581 51.1667 25.2914 51.1513L1.04769 50.5909C-0.0630894 50.5652 -0.403663 49.0731 0.585972 48.568L22.1857 37.5442C22.7797 37.2411 22.9547 36.4743 22.5511 35.9434L7.87344 16.6395C7.20096 15.7551 8.15521 14.5585 9.16712 15.0173L31.2531 25.0314C31.8605 25.3068 32.5691 24.9656 32.7325 24.319L38.6735 0.807807Z" fill="#3D27FF"/>
</svg>
