<svg width="105" height="103" viewBox="0 0 105 103" fill="none" xmlns="http://www.w3.org/2000/svg">
<path d="M53.4175 36.6953C53.6199 42.2621 59.9345 45.3257 64.3894 42.0201L93.7337 20.2466L93.7503 20.2275L59.1226 38.9062L52.0937 0.257686L53.4175 36.6953Z" fill="#3D27FF"/>
<path d="M93.7194 20.2634L66.0777 44.1496C61.8775 47.7785 63.4346 54.6555 68.7825 56.0998L104.046 65.6164L67.9444 50.0301L93.7194 20.2634Z" fill="#3D27FF"/>
<path d="M0.457934 65.444L35.3238 56.0783C40.6717 54.6411 42.236 47.7665 38.0406 44.1328L10.587 20.3521L10.3536 20.2251L36.1619 50.0301L0.457934 65.444Z" fill="#3D27FF"/>
<path d="M39.7312 42.0034C44.1838 45.3137 50.5007 42.2573 50.7103 36.6929L52.0794 0.166692L52.0532 0.0229492L44.9814 38.9038L10.7155 20.4191L39.7335 42.0034H39.7312Z" fill="#3D27FF"/>
<path d="M104.051 65.6189H104.044L68.1753 58.7562C62.7369 57.7167 58.3606 63.2283 60.575 68.3327L75.147 101.958L75.1923 102.023L64.7942 63.9062L104.048 65.6213L104.051 65.6189Z" fill="#3D27FF"/>
<path d="M28.9902 101.726L43.5123 68.3208C45.7315 63.2188 41.3622 57.6999 35.9215 58.7347L0.322226 65.5015L0.0507812 65.6189L39.305 63.9038L28.9878 101.728L28.9902 101.726Z" fill="#3D27FF"/>
<path d="M58.1344 69.5112C55.5509 64.5841 48.5411 64.5817 45.9529 69.504L28.9664 101.814L28.9116 102.021L52.0532 70.0765L75.1328 101.937L58.1344 69.5136V69.5112Z" fill="#3D27FF"/>
<path d="M53.4175 36.6953C53.6199 42.2621 59.9345 45.3257 64.3894 42.0201L93.7337 20.2466L93.7503 20.2275L59.1226 38.9062L52.0937 0.257686L53.4175 36.6953Z" stroke="#3D27FF" stroke-width="0.254237"/>
<path d="M93.7194 20.2634L66.0777 44.1496C61.8775 47.7785 63.4346 54.6555 68.7825 56.0998L104.046 65.6164L67.9444 50.0301L93.7194 20.2634Z" stroke="#3D27FF" stroke-width="0.254237"/>
<path d="M0.457934 65.444L35.3238 56.0783C40.6717 54.6411 42.236 47.7665 38.0406 44.1328L10.587 20.3521L10.3536 20.2251L36.1619 50.0301L0.457934 65.444Z" stroke="#3D27FF" stroke-width="0.254237"/>
<path d="M39.7312 42.0034C44.1838 45.3137 50.5007 42.2573 50.7103 36.6929L52.0794 0.166692L52.0532 0.0229492L44.9814 38.9038L10.7155 20.4191L39.7335 42.0034H39.7312Z" stroke="#3D27FF" stroke-width="0.254237"/>
<path d="M104.051 65.6189H104.044L68.1753 58.7562C62.7369 57.7167 58.3606 63.2283 60.575 68.3327L75.147 101.958L75.1923 102.023L64.7942 63.9062L104.048 65.6213L104.051 65.6189Z" stroke="#3D27FF" stroke-width="0.254237"/>
<path d="M28.9902 101.726L43.5123 68.3208C45.7315 63.2188 41.3622 57.6999 35.9215 58.7347L0.322226 65.5015L0.0507812 65.6189L39.305 63.9038L28.9878 101.728L28.9902 101.726Z" stroke="#3D27FF" stroke-width="0.254237"/>
<path d="M58.1344 69.5112C55.5509 64.5841 48.5411 64.5817 45.9529 69.504L28.9664 101.814L28.9116 102.021L52.0532 70.0765L75.1328 101.937L58.1344 69.5136V69.5112Z" stroke="#3D27FF" stroke-width="0.254237"/>
</svg>
