<svg width="120" height="120" viewBox="0 0 120 120" fill="none" xmlns="http://www.w3.org/2000/svg">
<g clip-path="url(#clip0_2260_2106)">
<path d="M78.5801 60.5017C78.0411 64.9057 76.0606 69.1034 72.7981 72.3659C68.8324 76.3339 63.2894 78.2019 56.3284 77.9206C51.4464 77.7261 49.1917 79.0034 48.8214 79.2354C47.326 80.5456 45.4276 81.2628 43.4237 81.2628C41.2323 81.2628 39.1721 80.4097 37.6229 78.8605C34.9486 76.1862 34.5174 72.0612 36.3432 68.9182L37.6533 66.8416C38.0986 65.7565 38.701 63.6143 38.5604 60.1525C38.2815 53.1892 40.1494 47.6485 44.1151 43.6829C47.3635 40.4368 51.5167 38.4258 56.0073 37.8891C56.6425 34.8352 58.0183 31.9781 60.0035 29.5781H12.8985C7.72346 29.5781 3.51172 33.7875 3.51172 38.9626V85.5074H101.434V39.2907L89.5349 53.8736C86.7364 57.2931 82.8505 59.6205 78.5801 60.5017Z" fill="#3D27FF"/>
<path d="M3.51195 95.5381C3.51195 100.711 7.7237 104.92 12.8987 104.92H39.5752V112.969H33.6624C31.7208 112.969 30.1467 114.543 30.1467 116.484C30.1467 118.426 31.7208 120 33.6624 120H71.2828C73.2244 120 74.7985 118.426 74.7985 116.484C74.7985 114.543 73.2244 112.969 71.2828 112.969H65.37V104.92H92.0474C97.2224 104.92 101.434 100.711 101.434 95.5381V92.5381H3.51172V95.5381H3.51195Z" fill="#3D27FF"/>
<path d="M42.6813 72.1491C42.6806 72.1496 42.6799 72.1503 42.6795 72.151C42.679 72.1513 42.6788 72.1515 42.6785 72.152L42.6776 72.1529C42.6771 72.1531 42.6769 72.1536 42.6764 72.1541C42.6762 72.1548 42.6759 72.1548 42.6752 72.1552L42.675 72.1555C42.6748 72.1559 42.6743 72.1562 42.6738 72.1566C42.6738 72.1566 42.6738 72.1566 42.6736 72.1569C42.6734 72.1571 42.6729 72.1576 42.6727 72.158C42.6727 72.158 42.6727 72.158 42.6724 72.1583C42.672 72.1585 42.6717 72.159 42.6713 72.1595C42.6713 72.1595 42.6713 72.1595 42.671 72.1597L42.6698 72.1609C42.2255 72.6195 42.2299 73.3515 42.683 73.8048C42.912 74.0335 43.2117 74.1479 43.5117 74.1479C43.8089 74.1479 44.1061 74.0356 44.3341 73.8109C44.4059 73.7429 47.9559 70.4609 56.7014 70.8125C61.6216 71.0108 65.3941 69.8321 67.9153 67.3112C73.0816 62.1448 73.0816 53.7388 67.9153 48.5724C65.4127 46.0698 62.0852 44.6914 58.5459 44.6914C55.0066 44.6914 51.6792 46.0695 49.1766 48.5724C46.6556 51.0934 45.4774 54.8663 45.6752 59.7863C46.0287 68.5794 42.7097 72.1198 42.683 72.1475C42.682 72.1482 42.6818 72.1487 42.6813 72.1491Z" fill="#3D27FF"/>
<path d="M78.2773 53.2732C80.5695 52.5865 82.6344 51.2271 84.1742 49.3451L88.6662 43.8401L72.6641 27.8379L67.182 32.3154C65.2953 33.8529 63.9313 35.9154 63.2422 38.2076C66.8656 39.0584 70.1891 40.9029 72.8867 43.6005C75.6477 46.3615 77.4453 49.7248 78.2773 53.2732Z" fill="#3D27FF"/>
<path d="M114.378 2.11108C111.76 -0.506891 107.621 -0.715485 104.752 1.62826L78.1367 23.3672L93.1337 38.3642L114.863 11.7347C117.204 8.86811 116.996 4.72905 114.378 2.11108Z" fill="#3D27FF"/>
</g>
<defs>
<clipPath id="clip0_2260_2106">
<rect width="120" height="120" fill="white"/>
</clipPath>
</defs>
</svg>
