<svg width="120" height="120" viewBox="0 0 120 120" fill="none" xmlns="http://www.w3.org/2000/svg">
<g clip-path="url(#clip0_2260_2144)">
<path d="M28.8066 91.7061H4.60547C2.66391 91.7061 1.08984 93.2801 1.08984 95.2217V116.484C1.08984 118.426 2.66391 120 4.60547 120H32.3224V95.2217C32.3222 93.2801 30.7484 91.7061 28.8066 91.7061Z" fill="#3D27FF"/>
<path d="M63.5568 72.0186H42.8711C40.9295 72.0186 39.3555 73.5926 39.3555 75.5342V120H67.0724V75.5342C67.0724 73.5926 65.4984 72.0186 63.5568 72.0186Z" fill="#3D27FF"/>
<path d="M111.983 18.9867L119.069 11.2969C120.015 10.2703 120.264 8.78203 119.704 7.50469C119.144 6.225 117.88 5.4 116.483 5.4H93.8195V3.51562C93.8195 1.575 92.2469 0 90.3039 0C88.3633 0 86.7883 1.575 86.7883 3.51562V44.5312H77.6172C75.6756 44.5312 74.1016 46.1053 74.1016 48.0469V120H102.416C104.359 120 105.932 118.425 105.932 116.484V48.0469C105.932 46.1063 104.359 44.5312 102.416 44.5312H93.8195V31.9523H116.483C117.906 31.9523 119.188 31.0945 119.732 29.7797C120.276 28.4648 119.973 26.9508 118.965 25.9477L111.983 18.9867Z" fill="#3D27FF"/>
<path d="M59.661 30.1843C60.5238 31.9239 62.6327 32.6345 64.3724 31.772C66.112 30.9093 66.8228 28.7999 65.9601 27.0604C59.5865 14.2079 60.2313 15.5036 60.1387 15.329C59.478 14.0807 58.1186 13.3269 56.6709 13.4769C56.661 13.4779 56.651 13.48 56.6409 13.4811C56.3533 13.5135 57.1213 13.3628 43.8056 16.165C41.9055 16.5648 40.6895 18.4293 41.0892 20.3293C41.4377 21.9852 42.8985 23.1217 44.5258 23.1217C45.0152 23.1217 44.6999 23.1622 50.883 21.861C46.2728 30.9102 40.2726 39.1569 32.9861 46.4439C24.0557 55.3745 13.6799 62.376 2.14705 67.2538C0.358766 68.0104 -0.477719 70.0729 0.27861 71.8611C1.03541 73.6511 3.09908 74.4854 4.88595 73.7298C17.257 68.4974 28.3839 60.9899 37.9577 51.4157C45.7607 43.6126 52.1901 34.7802 57.1326 25.0865L59.661 30.1843Z" fill="#3D27FF"/>
</g>
<defs>
<clipPath id="clip0_2260_2144">
<rect width="120" height="120" fill="white"/>
</clipPath>
</defs>
</svg>
