<svg width="120" height="120" viewBox="0 0 120 120" fill="none" xmlns="http://www.w3.org/2000/svg">
<path d="M86.1647 76.64C85.3336 70.9925 82.5057 65.8301 78.1942 62.0891C73.8826 58.3481 68.3729 56.2765 62.6647 56.25H57.3447C51.6365 56.2765 46.1268 58.3481 41.8153 62.0891C37.5037 65.8301 34.6758 70.9925 33.8447 76.64L31.2947 94.47C31.2133 95.0463 31.2671 95.6337 31.4519 96.1857C31.6368 96.7376 31.9476 97.239 32.3597 97.65C33.3597 98.65 39.4947 103.75 60.0097 103.75C80.5247 103.75 86.6447 98.67 87.6597 97.65C88.0719 97.239 88.3826 96.7376 88.5675 96.1857C88.7523 95.6337 88.8062 95.0463 88.7247 94.47L86.1647 76.64Z" fill="#3D27FF"/>
<path d="M37.8002 58.9997C32.9679 63.4544 29.8237 69.4425 28.9002 75.9497L27.0502 88.7497C12.2002 88.6497 7.70024 83.2497 6.95024 82.1497C6.66033 81.75 6.45345 81.2964 6.3418 80.8155C6.23016 80.3345 6.21603 79.8361 6.30024 79.3497L7.40024 73.1497C7.97335 69.9094 9.31935 66.8551 11.3241 64.2458C13.3289 61.6364 15.9333 59.549 18.9165 58.1604C21.8997 56.7719 25.1738 56.1231 28.4611 56.2692C31.7484 56.4153 34.952 57.3519 37.8002 58.9997Z" fill="#3D27FF"/>
<path d="M113.699 79.3497C113.783 79.8361 113.769 80.3345 113.658 80.8155C113.546 81.2964 113.339 81.75 113.049 82.1497C112.299 83.2497 107.799 88.6497 92.9492 88.7497L91.0992 75.9497C90.1757 69.4425 87.0316 63.4544 82.1992 58.9997C85.0475 57.3519 88.2511 56.4153 91.5384 56.2692C94.8257 56.1231 98.0998 56.7719 101.083 58.1604C104.066 59.549 106.671 61.6364 108.675 64.2458C110.68 66.8551 112.026 69.9094 112.599 73.1497L113.699 79.3497Z" fill="#3D27FF"/>
<path d="M38.65 48C37.3914 49.785 35.7205 51.2398 33.7794 52.2408C31.8382 53.2419 29.6841 53.7596 27.5 53.75C25.3213 53.75 23.1738 53.2323 21.2344 52.2395C19.295 51.2467 17.6193 49.8072 16.3454 48.0398C15.0715 46.2723 14.2358 44.2274 13.9073 42.0736C13.5787 39.9198 13.7666 37.7188 14.4556 35.6519C15.1446 33.585 16.3148 31.7114 17.87 30.1855C19.4251 28.6596 21.3206 27.5251 23.4002 26.8754C25.4798 26.2258 27.684 26.0797 29.8312 26.4491C31.9784 26.8184 34.007 27.6928 35.75 29C35.2487 30.9605 34.9967 32.9764 35 35C35.0038 39.5857 36.2664 44.0824 38.65 48Z" fill="#3D27FF"/>
<path d="M106.252 40C106.253 41.8061 105.898 43.5946 105.208 45.2635C104.517 46.9323 103.504 48.4486 102.227 49.7257C100.95 51.0027 99.4338 52.0155 97.765 52.706C96.0962 53.3966 94.3076 53.7513 92.5016 53.75C90.3175 53.7596 88.1634 53.2419 86.2222 52.2409C84.281 51.2398 82.6102 49.785 81.3516 48C83.7352 44.0825 84.9977 39.5857 85.0016 35C85.0049 32.9764 84.7529 30.9605 84.2516 29C86.2944 27.4679 88.7235 26.5349 91.2667 26.3056C93.81 26.0762 96.3668 26.5597 98.6507 27.7016C100.935 28.8436 102.856 30.599 104.198 32.7712C105.54 34.9434 106.252 37.4465 106.252 40Z" fill="#3D27FF"/>
<path d="M60 53.75C70.3553 53.75 78.75 45.3553 78.75 35C78.75 24.6447 70.3553 16.25 60 16.25C49.6447 16.25 41.25 24.6447 41.25 35C41.25 45.3553 49.6447 53.75 60 53.75Z" fill="#3D27FF"/>
</svg>
