<svg width="51" height="51" viewBox="0 0 51 51" fill="none" xmlns="http://www.w3.org/2000/svg">
<path d="M4.25 27.5844H15.6712C15.8658 30.9469 16.491 34.212 17.547 37.38C18.5752 40.4645 19.9924 43.3685 21.7987 46.0918C18.7141 45.6194 15.9005 44.5148 13.3578 42.778C10.8151 41.0412 8.7518 38.8667 7.16783 36.2545C5.55608 33.5868 4.58347 30.6968 4.25 27.5844ZM4.25 23.4161C4.58347 20.3037 5.55608 17.4137 7.16783 14.7459C8.7518 12.1338 10.8151 9.95929 13.3578 8.22249C15.9005 6.48568 18.7141 5.38107 21.7987 4.90866C19.9924 7.63197 18.5752 10.5359 17.547 13.6205C16.491 16.7884 15.8658 20.0536 15.6712 23.4161H4.25ZM45.7666 23.4161H34.3454C34.1508 20.0536 33.5256 16.7884 32.4696 13.6205C31.4414 10.5359 30.0242 7.63197 28.2179 4.90866C31.3025 5.38107 34.1161 6.48568 36.6588 8.22249C39.2015 9.95929 41.2648 12.1338 42.8488 14.7459C44.4605 17.4137 45.4331 20.3037 45.7666 23.4161ZM45.7666 27.5844C45.4331 30.6968 44.4605 33.5868 42.8488 36.2545C41.2648 38.8667 39.2015 41.0412 36.6588 42.778C34.1161 44.5148 31.3025 45.6194 28.2179 46.0918C30.0242 43.3685 31.4414 40.4645 32.4696 37.38C33.5256 34.212 34.1508 30.9469 34.3454 27.5844H45.7666ZM19.8813 27.5844H30.1354C29.9686 30.4467 29.4406 33.2255 28.5514 35.9211C27.6899 38.561 26.5089 41.062 25.0083 43.4241C23.5077 41.062 22.3267 38.561 21.4652 35.9211C20.576 33.2255 20.048 30.4467 19.8813 27.5844ZM19.8813 23.4161C20.048 20.5538 20.576 17.7749 21.4652 15.0794C22.3267 12.4395 23.5077 9.93845 25.0083 7.5764C26.5089 9.93845 27.6899 12.4395 28.5514 15.0794C29.4406 17.7749 29.9686 20.5538 30.1354 23.4161H19.8813Z" fill="#3D27FF"/>
</svg>
