<svg width="175" height="32" viewBox="0 0 175 32" fill="none" xmlns="http://www.w3.org/2000/svg">
<path d="M19.7361 0L11.9925 9.00069L19.4093 17.5991H13.3753L7.9196 11.2634H4.57577V17.5991H0V0H4.57577V6.71281H7.9196L13.7022 0H19.7361Z" fill="#121212"/>
<path d="M37.8552 17.5991H25.9632L28.2008 13.0233H33.1286L30.1367 6.98936L24.9073 17.5991H19.8035L27.7483 1.48335C27.9829 1.03081 28.3098 0.670443 28.7288 0.402266C29.1646 0.134089 29.6339 0 30.1367 0C30.6563 0 31.1256 0.134089 31.5446 0.402266C31.9804 0.670443 32.3073 1.03081 32.5252 1.48335L39.3134 15.2358C39.5816 15.7889 39.5564 16.3253 39.238 16.8449C38.9195 17.3477 38.4586 17.5991 37.8552 17.5991Z" fill="#121212"/>
<path d="M45.7991 13.0233H55.5289V17.5991H41.2234V0H45.7991V13.0233Z" fill="#121212"/>
<path d="M61.9055 17.5991H57.3297V0H61.9055V17.5991Z" fill="#121212"/>
<path d="M84.6525 0L76.9089 9.00069L84.3257 17.5991H78.2917L72.836 11.2634H69.4921V17.5991H64.9164V0H69.4921V6.71281H72.836L78.6185 0H84.6525Z" fill="#121212"/>
<path d="M109.258 0H113.834V7.24078L107.247 17.5991H103.903L99.6037 10.836L95.3045 17.5991H91.9858L85.3987 7.24078V0H89.9745V5.90827L93.6452 11.6908L97.3158 5.90827V0H101.892V5.90827L105.587 11.6908L109.258 5.90827V0Z" fill="#121212"/>
<path d="M134.689 4.57577H120.61V6.76309H133.231V10.836H120.61V13.0233H134.689V17.5991H116.034V0H134.689V4.57577Z" fill="#121212"/>
<path d="M150.27 5.15403C151.996 5.15403 153.463 5.76581 154.669 6.98936C155.893 8.19616 156.505 9.66275 156.505 11.3891C156.505 13.0988 155.893 14.5654 154.669 15.7889C153.463 16.9957 151.996 17.5991 150.27 17.5991H138.73V13.0233H150.27C150.722 13.0233 151.108 12.8641 151.426 12.5457C151.761 12.2272 151.929 11.8417 151.929 11.3891C151.929 10.9366 151.761 10.5511 151.426 10.2326C151.108 9.89741 150.722 9.7298 150.27 9.7298H146.624L145.593 12.4451H142.652C140.942 12.4451 139.476 11.8417 138.252 10.6349C137.045 9.41134 136.442 7.94474 136.442 6.23512C136.442 4.50873 137.045 3.04213 138.252 1.83534C139.476 0.611779 140.942 0 142.652 0H154.217V4.57577H142.652C142.199 4.57577 141.814 4.735 141.495 5.05346C141.177 5.37192 141.018 5.75743 141.018 6.20997C141.018 6.66252 141.177 7.05641 141.495 7.39163C141.814 7.71009 142.199 7.86932 142.652 7.86932H146.297L147.303 5.15403H150.27Z" fill="#121212"/>
<path d="M174.317 0V4.57577H167.705V17.5991H163.129V4.57577H156.542V0H174.317Z" fill="#121212"/>
<path d="M25.8395 32H20.0524L21.1413 29.7732H23.5394L22.0834 26.8369L19.5385 32H17.0549L20.9211 24.1574C21.0353 23.9372 21.1943 23.7618 21.3983 23.6313C21.6103 23.5008 21.8387 23.4355 22.0834 23.4355C22.3363 23.4355 22.5647 23.5008 22.7686 23.6313C22.9806 23.7618 23.1397 23.9372 23.2457 24.1574L26.5492 30.8499C26.6797 31.1191 26.6674 31.3801 26.5125 31.633C26.3575 31.8777 26.1332 32 25.8395 32Z" fill="#121212"/>
<path d="M50.1202 27.3752H52.3469V32H46.7433C45.9684 32 45.2507 31.8083 44.59 31.425C43.9374 31.0416 43.4195 30.5237 43.0361 29.8711C42.6528 29.2104 42.4611 28.4927 42.4611 27.7178C42.4611 26.9429 42.6528 26.2292 43.0361 25.5767C43.4195 24.916 43.9374 24.3939 44.59 24.0106C45.2507 23.6272 45.9684 23.4355 46.7433 23.4355H51.2335V25.6623H46.7433C46.1724 25.6623 45.687 25.8621 45.2874 26.2618C44.8877 26.6615 44.6878 27.1468 44.6878 27.7178C44.6878 28.2887 44.8877 28.7741 45.2874 29.1737C45.687 29.5734 46.1724 29.7732 46.7433 29.7732H50.1202V27.3752Z" fill="#121212"/>
<path d="M78.2853 25.6623H71.4337V26.7267H77.5757V28.7088H71.4337V29.7732H78.2853V32H69.207V23.4355H78.2853V25.6623Z" fill="#121212"/>
<path d="M99.2646 26.0049C99.0525 25.7765 98.7589 25.6623 98.3837 25.6623C98.0819 25.6623 97.829 25.7357 97.6251 25.8825C97.4293 26.0294 97.3315 26.1966 97.3315 26.3842V32H95.1047V26.3842C95.1047 25.5685 95.4228 24.8752 96.059 24.3042C96.7034 23.7251 97.4783 23.4355 98.3837 23.4355C98.8731 23.4355 99.338 23.5293 99.7784 23.7169C100.219 23.9045 100.598 24.1696 100.916 24.5122L103.889 27.7178H100.831L99.2646 26.0049ZM104.11 23.4355H106.336V29.0514C106.336 29.5897 106.19 30.0873 105.896 30.544C105.602 30.9927 105.203 31.3475 104.697 31.6085C104.191 31.8695 103.645 32 103.057 32C102.56 32 102.091 31.9062 101.65 31.7186C101.21 31.531 100.835 31.2659 100.525 30.9233L97.5761 27.7178H100.598L102.164 29.4307C102.376 29.659 102.674 29.7732 103.057 29.7732C103.253 29.7732 103.433 29.7365 103.596 29.6631C103.759 29.5897 103.885 29.5 103.975 29.394C104.065 29.2798 104.11 29.1656 104.11 29.0514V23.4355Z" fill="#121212"/>
<path d="M127.24 25.6623C126.669 25.6623 126.184 25.8621 125.784 26.2618C125.385 26.6615 125.185 27.1468 125.185 27.7178C125.185 28.2887 125.385 28.7741 125.784 29.1737C126.184 29.5734 126.669 29.7732 127.24 29.7732H131.07V32H127.24C126.465 32 125.747 31.8083 125.087 31.425C124.434 31.0416 123.916 30.5237 123.533 29.8711C123.15 29.2104 122.958 28.4927 122.958 27.7178C122.958 26.9429 123.15 26.2292 123.533 25.5767C123.916 24.916 124.434 24.3939 125.087 24.0106C125.747 23.6272 126.465 23.4355 127.24 23.4355H131.07V25.6623H127.24Z" fill="#121212"/>
<path d="M155.889 23.4355V25.907L152.732 28.7333V32H150.518V28.7333L147.361 25.907V23.4355H149.588V24.916L151.619 26.7512L153.662 24.916V23.4355H155.889Z" fill="#121212"/>
</svg>
